<svg width="21" height="12" viewBox="0 0 21 12" fill="none" xmlns="http://www.w3.org/2000/svg">
<path d="M0.76769 7.33757L4.15394 10.7588C4.23528 10.8408 4.33206 10.9059 4.43869 10.9503C4.54531 10.9948 4.65968 11.0176 4.77519 11.0176C4.8907 11.0176 5.00507 10.9948 5.1117 10.9503C5.21832 10.9059 5.3151 10.8408 5.39644 10.7588C5.47845 10.6775 5.54355 10.5807 5.58797 10.4741C5.63239 10.3674 5.65526 10.2531 5.65526 10.1376C5.65526 10.0221 5.63239 9.90769 5.58797 9.80106C5.54355 9.69444 5.47845 9.59766 5.39644 9.51632L2.28144 6.38382H20.1227C20.3548 6.38382 20.5773 6.29163 20.7414 6.12754C20.9055 5.96344 20.9977 5.74088 20.9977 5.50882C20.9977 5.27676 20.9055 5.0542 20.7414 4.8901C20.5773 4.72601 20.3548 4.63382 20.1227 4.63382H2.22894L5.39644 1.46632C5.55157 1.30359 5.63811 1.0874 5.63811 0.862573C5.63811 0.63775 5.55157 0.421553 5.39644 0.258823C5.3151 0.176811 5.21832 0.111716 5.1117 0.0672933C5.00507 0.0228707 4.8907 0 4.77519 0C4.65968 0 4.54531 0.0228707 4.43869 0.0672933C4.33206 0.111716 4.23528 0.176811 4.15394 0.258823L0.76769 3.62757C0.276114 4.11976 0 4.78694 0 5.48257C0 6.1782 0.276114 6.84538 0.76769 7.33757Z" fill="#AF9274"/>
</svg>
