<svg width="38" height="31" viewBox="0 0 38 31" fill="none" xmlns="http://www.w3.org/2000/svg">
<rect x="0.0239258" y="6.83325" width="29.537" height="24.1667" rx="4" fill="#C1A18F"/>
<path d="M7.18481 13.0988H17.0305M7.18481 18.4691H19.2681M7.18481 23.8395H23.2959" stroke="white" stroke-width="2" stroke-linecap="round"/>
<path d="M30.0754 1.88354L30.0754 1.88357L28.5508 3.40834L27.8437 4.11548L27.844 4.11579L27.8388 4.121L20.4954 11.466C20.4954 11.466 20.4953 11.4661 20.4953 11.4661C20.4952 11.4662 20.4951 11.4663 20.495 11.4664C20.0479 11.9132 19.7216 12.4658 19.5437 13.0687L19.5435 13.0694L18.4286 16.8593L18.4279 16.8617C18.2615 17.4323 18.3846 18.1156 18.8733 18.5734C19.3344 19.0607 20.0048 19.2186 20.6101 19.0393C20.6105 19.0392 20.6108 19.0391 20.6111 19.039L24.3962 17.9253C24.3967 17.9252 24.3973 17.925 24.3978 17.9249C25.0058 17.7478 25.5579 17.4171 26.0021 16.973C26.0021 16.9729 26.0022 16.9729 26.0022 16.9728L33.3481 9.62947L33.3531 9.62448L34.0555 8.92229L34.0553 8.92213L34.0601 8.91734L35.5848 7.39256C36.7626 6.21467 36.7629 4.30396 35.5851 3.12603C35.5849 3.12592 35.5848 3.12582 35.5847 3.12571C35.5847 3.12568 35.5847 3.12565 35.5846 3.12562L34.3439 1.88384L34.3436 1.88354C33.1656 0.705486 31.2535 0.705487 30.0754 1.88354Z" fill="#C1A18F" stroke="white" stroke-width="2"/>
</svg>
