<svg width="30" height="30" viewBox="0 0 30 30" fill="none" xmlns="http://www.w3.org/2000/svg">
<circle cx="15" cy="15" r="15" fill="#C1A18F"/>
<path d="M10.9386 16.9721C10.9386 16.9721 10.472 20.375 13.375 22.8351C16.278 25.2951 20.4293 24.9238 22.9391 21.9621C25.4489 19.0003 24.9144 14.6582 22.1418 12.3087C19.3692 9.95913 16.0479 10.9429 16.0479 10.9429" stroke="white" stroke-width="2" stroke-linecap="round"/>
<path d="M14.5668 7.84221C14.5955 8.11472 14.5078 8.36211 14.3456 8.54255C14.1834 8.72299 13.9465 8.83549 13.6729 8.8378L9.05768 8.88167L16.4269 15.5063C16.8519 15.8884 16.8907 16.4933 16.5589 16.8623C16.2272 17.2314 15.5862 17.2969 15.1609 16.9146L7.79168 10.29L8.23743 14.883C8.29051 15.4281 7.88994 15.8737 7.34233 15.8787C6.79473 15.8838 6.30817 15.4464 6.25509 14.9014L5.57569 7.92468C5.52261 7.37963 5.92318 6.93404 6.47079 6.92898L13.4802 6.86417C14.0284 6.86085 14.5137 7.29716 14.5668 7.84221Z" fill="white"/>
</svg>
