<svg width="36" height="32" viewBox="0 0 36 32" fill="none" xmlns="http://www.w3.org/2000/svg">
<path d="M33.1243 0.0246582C34.6427 0.0246582 35.8746 1.24497 35.8746 2.75035V26.373C35.8746 27.8778 34.6427 29.0987 33.1243 29.0987H27.6238V24.5559C27.6238 23.0511 26.3919 21.8302 24.8736 21.8302C23.3552 21.8302 22.1233 23.0511 22.1233 24.5559V29.0987H16.6228C15.1039 29.0987 13.8726 27.8778 13.8726 26.373V2.75035C13.8726 1.24497 15.1039 0.0246582 16.6228 0.0246582H33.1243ZM17.5396 15.4703C17.5396 15.97 17.9498 16.3788 18.4563 16.3788H20.2898C20.794 16.3788 21.2066 15.97 21.2066 15.4703V13.6531C21.2066 13.1534 20.794 12.7446 20.2898 12.7446H18.4563C17.9498 12.7446 17.5396 13.1534 17.5396 13.6531V15.4703ZM23.9568 12.7446C23.4526 12.7446 23.0401 13.1534 23.0401 13.6531V15.4703C23.0401 15.97 23.4526 16.3788 23.9568 16.3788H25.7903C26.2945 16.3788 26.7071 15.97 26.7071 15.4703V13.6531C26.7071 13.1534 26.2945 12.7446 25.7903 12.7446H23.9568ZM28.5406 15.4703C28.5406 15.97 28.9531 16.3788 29.4573 16.3788H31.2908C31.795 16.3788 32.2076 15.97 32.2076 15.4703V13.6531C32.2076 13.1534 31.795 12.7446 31.2908 12.7446H29.4573C28.9531 12.7446 28.5406 13.1534 28.5406 13.6531V15.4703ZM18.4563 5.47605C17.9498 5.47605 17.5396 5.8849 17.5396 6.38461V8.20174C17.5396 8.70145 17.9498 9.11031 18.4563 9.11031H20.2898C20.794 9.11031 21.2066 8.70145 21.2066 8.20174V6.38461C21.2066 5.8849 20.794 5.47605 20.2898 5.47605H18.4563ZM23.0401 8.20174C23.0401 8.70145 23.4526 9.11031 23.9568 9.11031H25.7903C26.2945 9.11031 26.7071 8.70145 26.7071 8.20174V6.38461C26.7071 5.8849 26.2945 5.47605 25.7903 5.47605H23.9568C23.4526 5.47605 23.0401 5.8849 23.0401 6.38461V8.20174ZM29.4573 5.47605C28.9531 5.47605 28.5406 5.8849 28.5406 6.38461V8.20174C28.5406 8.70145 28.9531 9.11031 29.4573 9.11031H31.2908C31.795 9.11031 32.2076 8.70145 32.2076 8.20174V6.38461C32.2076 5.8849 31.795 5.47605 31.2908 5.47605H29.4573Z" fill="#C1A18F"/>
<path d="M3.26621 21.8331H3.44637V23.3681C3.44409 23.4133 3.44305 23.4585 3.44305 23.4999V27.6253C3.44305 28.9917 4.55062 30.0986 5.9164 30.0986H6.50574C6.55662 30.0986 6.60537 30.0963 6.64517 30.0937C6.69096 30.0963 6.74647 30.0986 6.80409 30.0986H8.8631C10.2294 30.0986 11.3364 28.9916 11.3364 27.6253V24.3839C11.3364 24.2842 11.4155 24.2052 11.5151 24.2052H13.8725C13.9722 24.2052 14.0512 24.2842 14.0512 24.3839V27.6253C14.0512 28.9916 15.1582 30.0986 16.5245 30.0986H18.5012L18.8256 30.284L19.0804 30.0986H19.4712C20.8375 30.0986 21.9446 28.9916 21.9446 27.6253V27.081C21.9551 26.9748 21.963 26.8586 21.963 26.7302L21.963 26.7258L21.9416 21.8331H22.1159C23.2594 21.8331 24.2619 20.9124 24.2938 19.7098C24.3598 18.9752 23.9882 18.4 23.5494 18.0155C23.5489 18.015 23.5484 18.0146 23.5479 18.0142L14.1461 9.74712L14.1334 9.73601L14.1204 9.72533C13.6723 9.35732 13.1329 9.23975 12.7085 9.23975C12.3552 9.23975 11.7483 9.28984 11.2191 9.80041L1.79732 18.0129L1.77167 18.0353L1.74759 18.0593C1.29508 18.5115 1.08569 19.0636 1.08569 19.6508C1.08569 20.8634 2.04716 21.8331 3.26621 21.8331ZM18.8794 30.0661L18.8794 30.0661L18.8794 30.0661Z" fill="#C1A18F" stroke="white" stroke-width="2"/>
</svg>
