<svg width="37" height="29" viewBox="0 0 37 29" fill="none" xmlns="http://www.w3.org/2000/svg">
<path d="M31.2881 25.375C31.3402 25.6582 31.4558 25.9641 31.4558 26.2812C31.4558 27.7822 30.2128 29 28.675 29C27.143 29 25.9058 27.7822 25.9058 26.2812C25.9058 25.9641 25.9694 25.6582 26.0214 25.375H14.6323C14.7364 25.6582 14.8 25.9641 14.8 26.2812C14.8 27.7822 13.557 29 12.025 29C10.493 29 9.25 27.7822 9.25 26.2812C9.25 25.9641 9.31359 25.6582 9.41766 25.375H5.55C4.5325 25.375 3.7 24.5594 3.7 23.5625V4.53125C3.7 4.03055 3.28606 3.625 2.775 3.625H1.85C0.8325 3.625 0 2.80937 0 1.8125C0 0.815625 0.8325 0 1.85 0H3.7C5.735 0 7.4 1.63125 7.4 3.625V21.75H35.15C36.1675 21.75 37 22.5656 37 23.5625C37 24.5594 36.1675 25.375 35.15 25.375H31.2881ZM24.975 0C26.507 0 27.75 1.21777 27.75 2.71875V18.125H16.65V2.71875C16.65 1.21777 17.893 0 19.425 0H24.975ZM19.425 5.4375H24.975V2.71875H19.425V5.4375ZM14.8 18.125H12.95C11.9325 18.125 11.1 17.3094 11.1 16.3125V7.25C11.1 6.25312 11.9325 5.4375 12.95 5.4375H14.8V18.125ZM33.3 7.25V16.3125C33.3 17.3094 32.4675 18.125 31.45 18.125H29.6V5.4375H31.45C32.4675 5.4375 33.3 6.25312 33.3 7.25Z" fill="#C1A18F"/>
</svg>
