<svg width="31" height="30" viewBox="0 0 31 30" fill="none" xmlns="http://www.w3.org/2000/svg">
<circle cx="15.5302" cy="14.537" r="14.537" fill="#C1A18F"/>
<path d="M7.7771 12.383V12.2024C7.7771 10.0267 9.30115 8.171 11.3791 7.81368C12.7275 7.57743 14.1544 8.03996 15.1379 9.05623L15.4999 9.42912L15.8348 9.05623C16.8454 8.03996 18.2451 7.57743 19.6207 7.81368C21.6993 8.171 23.2227 10.0267 23.2227 12.2024V12.383C23.2227 13.6747 22.7038 14.9104 21.7867 15.7913L16.3355 21.0423C16.1093 21.2601 15.8106 21.3815 15.4999 21.3815C15.1892 21.3815 14.8905 21.2601 14.6643 21.0423L9.21276 15.7913C8.29688 14.9104 7.77711 13.6747 7.77711 12.383H7.7771Z" fill="white"/>
</svg>
