<svg width="29" height="29" viewBox="0 0 29 29" fill="none" xmlns="http://www.w3.org/2000/svg">
<path d="M14.5 23.6248C13.5722 23.6248 12.6377 23.3926 11.8447 22.7684L0 14.2112V26.2813C0 27.7822 1.21777 29 2.71875 29H26.2812C27.7822 29 29 27.7822 29 26.3322V14.2112L17.1564 22.7696C16.3635 23.336 15.4289 23.6248 14.5 23.6248ZM27.9578 9.23249C27.4594 8.83601 26.9836 8.46784 26.2812 7.93542V5.43645C26.2812 3.93548 25.0635 2.71771 23.5625 2.71771L19.1729 2.7178C18.9958 2.59036 18.8401 2.47708 18.656 2.34963C17.7059 1.65003 15.8197 -0.0210396 14.5 0.000200601C13.1859 -0.0210396 11.2941 1.65003 10.3426 2.35068C10.1585 2.47812 10.0027 2.5914 9.82573 2.71884H5.4375C3.93652 2.71884 2.71875 3.93661 2.71875 5.43758V7.93656C2.01811 8.46784 1.54346 8.83601 1.04105 9.23249C0.382324 9.74225 0 10.5352 0 11.3735V11.975L5.4375 15.9042V5.43758H23.5625V15.8991L29 11.9699V11.3735C29 10.5352 28.6205 9.74225 27.9578 9.23249ZM9.96875 14.4491H19.0312C19.5317 14.4491 19.9375 14.0433 19.9375 13.5938C19.9375 13.0932 19.5317 12.6876 19.0312 12.6876H9.96875C9.46827 12.6876 9.0625 13.0932 9.0625 13.5938C9.0625 14.0922 9.47031 14.4491 9.96875 14.4491ZM9.96875 10.8241H19.0312C19.5317 10.8241 19.9375 10.4183 19.9375 9.91784C19.9375 9.41725 19.5317 9.06257 19.0312 9.06257H9.96875C9.46827 9.06257 9.0625 9.46823 9.0625 9.91784C9.0625 10.4672 9.47031 10.8241 9.96875 10.8241Z" fill="#C1A18F"/>
</svg>
