<svg width="127" height="48" viewBox="0 0 127 48" fill="none" xmlns="http://www.w3.org/2000/svg">
<g filter="url(#filter0_d_84_1713)">
<path d="M34.9087 8.20586H112.525C117.921 8.20586 122.296 12.5805 122.296 17.9769V22.0274C122.296 27.4238 117.921 31.7984 112.525 31.7984H34.9087V8.20586Z" fill="url(#paint0_linear_84_1713)" stroke="white" stroke-width="0.710061"/>
<path d="M52.1248 16.0447V19.3479H55.7257V20.4111H52.1248V23.8135H56.151V24.8767H50.8348V14.9815H56.151V16.0447H52.1248ZM63.1357 19.9433L66.1694 24.8767H64.7093L62.3418 21.0207L60.0877 24.8767H58.6559L61.6755 19.9433L58.6417 14.9957H60.0877L62.4694 18.8659L64.7376 14.9957H66.1836L63.1357 19.9433ZM75.4989 17.8877C75.4989 18.7099 75.2154 19.3951 74.6483 19.9433C74.0907 20.482 73.2354 20.7513 72.0824 20.7513H70.1827V24.8767H68.8927V14.9957H72.0824C73.1976 14.9957 74.0435 15.265 74.62 15.8037C75.2059 16.3424 75.4989 17.0371 75.4989 17.8877ZM72.0824 19.6881C72.8007 19.6881 73.3299 19.5322 73.6702 19.2203C74.0104 18.9084 74.1805 18.4642 74.1805 17.8877C74.1805 16.6685 73.4811 16.0589 72.0824 16.0589H70.1827V19.6881H72.0824ZM83.2975 24.8767L80.9442 20.8364H79.3847V24.8767H78.0947V14.9957H81.2844C82.031 14.9957 82.6595 15.1233 83.1699 15.3784C83.6897 15.6336 84.0772 15.9786 84.3323 16.4133C84.5875 16.8481 84.7151 17.3442 84.7151 17.9019C84.7151 18.5823 84.5166 19.1825 84.1197 19.7023C83.7322 20.2221 83.1462 20.567 82.3618 20.7372L84.8427 24.8767H83.2975ZM79.3847 19.8015H81.2844C81.9838 19.8015 82.5083 19.6314 82.858 19.2912C83.2077 18.9415 83.3825 18.4784 83.3825 17.9019C83.3825 17.3159 83.2077 16.8622 82.858 16.5409C82.5177 16.2196 81.9932 16.0589 81.2844 16.0589H79.3847V19.8015ZM89.0021 16.0447V19.3479H92.6029V20.4111H89.0021V23.8135H93.0282V24.8767H87.712V14.9815H93.0282V16.0447H89.0021ZM99.1056 24.9759C98.4535 24.9759 97.8675 24.8625 97.3477 24.6357C96.8374 24.3994 96.4357 24.0781 96.1427 23.6717C95.8497 23.2559 95.6985 22.7786 95.6891 22.2399H97.0642C97.1115 22.703 97.3005 23.0952 97.6313 23.4165C97.9715 23.7284 98.4629 23.8844 99.1056 23.8844C99.7199 23.8844 100.202 23.7331 100.552 23.4307C100.911 23.1188 101.09 22.7219 101.09 22.2399C101.09 21.8618 100.986 21.5547 100.778 21.3184C100.571 21.0821 100.311 20.9026 99.9987 20.7797C99.6869 20.6568 99.2663 20.5245 98.737 20.3827C98.0849 20.2126 97.5604 20.0425 97.1634 19.8724C96.7759 19.7023 96.4404 19.4376 96.1569 19.0785C95.8828 18.7099 95.7458 18.2185 95.7458 17.6041C95.7458 17.0654 95.8828 16.5882 96.1569 16.1723C96.431 15.7565 96.8137 15.4351 97.3052 15.2083C97.8061 14.9815 98.3779 14.8681 99.0206 14.8681C99.9468 14.8681 100.703 15.0996 101.289 15.5627C101.884 16.0258 102.22 16.6401 102.295 17.4057H100.878C100.83 17.0276 100.632 16.6969 100.282 16.4133C99.9326 16.1203 99.4695 15.9738 98.893 15.9738C98.3543 15.9738 97.9148 16.1156 97.5746 16.3991C97.2343 16.6732 97.0642 17.0607 97.0642 17.5616C97.0642 17.9208 97.1634 18.2137 97.3619 18.4406C97.5698 18.6674 97.8203 18.8422 98.1133 18.9651C98.4157 19.0785 98.8363 19.2108 99.375 19.362C100.027 19.5416 100.552 19.7212 100.949 19.9007C101.346 20.0709 101.686 20.3402 101.969 20.7088C102.253 21.0679 102.395 21.5594 102.395 22.1832C102.395 22.6652 102.267 23.1188 102.012 23.5441C101.757 23.9694 101.379 24.3144 100.878 24.579C100.377 24.8436 99.7861 24.9759 99.1056 24.9759ZM108.418 24.9759C107.766 24.9759 107.18 24.8625 106.66 24.6357C106.15 24.3994 105.748 24.0781 105.455 23.6717C105.163 23.2559 105.011 22.7786 105.002 22.2399H106.377C106.424 22.703 106.613 23.0952 106.944 23.4165C107.284 23.7284 107.776 23.8844 108.418 23.8844C109.033 23.8844 109.515 23.7331 109.864 23.4307C110.224 23.1188 110.403 22.7219 110.403 22.2399C110.403 21.8618 110.299 21.5547 110.091 21.3184C109.883 21.0821 109.623 20.9026 109.311 20.7797C109 20.6568 108.579 20.5245 108.05 20.3827C107.398 20.2126 106.873 20.0425 106.476 19.8724C106.089 19.7023 105.753 19.4376 105.47 19.0785C105.196 18.7099 105.059 18.2185 105.059 17.6041C105.059 17.0654 105.196 16.5882 105.47 16.1723C105.744 15.7565 106.127 15.4351 106.618 15.2083C107.119 14.9815 107.691 14.8681 108.333 14.8681C109.26 14.8681 110.016 15.0996 110.602 15.5627C111.197 16.0258 111.532 16.6401 111.608 17.4057H110.19C110.143 17.0276 109.945 16.6969 109.595 16.4133C109.245 16.1203 108.782 15.9738 108.206 15.9738C107.667 15.9738 107.228 16.1156 106.887 16.3991C106.547 16.6732 106.377 17.0607 106.377 17.5616C106.377 17.9208 106.476 18.2137 106.675 18.4406C106.883 18.6674 107.133 18.8422 107.426 18.9651C107.728 19.0785 108.149 19.2108 108.688 19.362C109.34 19.5416 109.864 19.7212 110.261 19.9007C110.658 20.0709 110.999 20.3402 111.282 20.7088C111.566 21.0679 111.707 21.5594 111.707 22.1832C111.707 22.6652 111.58 23.1188 111.325 23.5441C111.069 23.9694 110.691 24.3144 110.19 24.579C109.69 24.8436 109.099 24.9759 108.418 24.9759Z" fill="white"/>
<circle cx="23.7933" cy="20.0023" r="18.4801" fill="white" stroke="#9F7356" stroke-width="1.51891"/>
<g filter="url(#filter1_i_84_1713)">
<path fill-rule="evenodd" clip-rule="evenodd" d="M29.1591 19.4611C29.0347 18.7771 28.5389 18.5447 28.2175 18.0823C27.8627 17.5725 27.3531 17.3983 26.7091 17.3359C26.2644 17.2897 26.4225 17.1681 26.2159 17.0539C26.0204 16.9473 25.7899 17.1221 25.5574 17.0666C25.3712 17.0253 25.2608 16.8498 25.0883 16.7672C24.881 16.6699 24.6542 16.7537 24.4473 16.6476C24.2745 16.5569 24.151 16.4227 24.1866 16.1256C24.2132 15.7712 24.3492 15.8805 24.2379 15.4502C24.168 15.1495 24.3489 15.0432 24.485 14.8732C24.6099 14.6955 24.6513 14.5377 24.7425 14.3202C24.8599 14.0357 25.2459 13.5102 25.2464 13.2065C25.0592 13.1903 24.9911 13.415 24.9241 13.6146C24.8154 13.9644 24.2931 14.9555 24.0988 15.1118C23.983 15.0675 23.6069 14.7972 23.6069 14.7972L23.0872 15.1564C22.9275 15.0401 22.6816 14.4522 22.5725 14.2435C22.421 13.9301 22.3736 13.3737 22.1053 13.3284C22.057 13.6424 22.4351 14.1675 22.5281 14.4752C22.601 14.7018 22.6528 14.8718 22.7764 15.006C22.933 15.1963 23.0014 15.2422 22.8943 15.5669C22.7471 16.0086 23.1866 16.457 22.5633 16.755C22.3475 16.8628 22.151 16.7813 21.91 16.9315C21.7409 17.0455 21.64 17.2058 21.4386 17.256C21.1894 17.3164 20.9617 17.1455 20.7543 17.3274C20.5349 17.5256 20.6631 17.545 20.237 17.6295C19.7754 17.7155 19.4183 17.8296 19.0894 18.107C18.9065 18.2629 18.8211 18.3405 18.6836 18.5438C18.5093 18.7813 18.498 18.7655 18.2792 18.9474C18.1083 19.1027 17.7216 19.6451 17.6497 19.9764C17.3932 19.9219 17.3031 19.8357 17.0364 20.0278C16.8907 20.1407 16.824 20.3327 16.6775 20.4788C16.3725 20.7546 15.7815 20.5595 15.4963 20.9247C15.2972 21.1958 15.6253 20.9271 15.0801 21.3369C14.8741 21.4856 14.7795 21.506 14.5745 21.6303C13.4053 22.3549 14.2907 23.3911 15.0795 22.4866C15.2521 22.2899 15.2658 22.2486 15.5754 22.1366C15.7787 22.0538 15.9452 22.0057 16.1599 21.9224C16.6135 21.7546 16.8711 21.7677 17.1379 21.2801C17.2404 21.0783 17.4337 20.947 17.4978 20.8209C17.6141 20.5615 17.4095 20.3977 17.6645 20.198C17.8255 20.2811 17.6805 20.3776 18.0339 20.3539C18.4465 20.3195 18.7538 19.986 19.0574 19.7428C19.4587 19.4133 20.0892 19.2214 20.3734 18.8802C20.9921 18.1141 21.3779 17.8835 22.2968 17.5394C22.6672 17.3916 22.6422 17.1384 22.938 17.0841C23.0047 17.1714 23.0267 17.2198 23.0334 17.3342C22.4333 17.9267 22.7939 18.0179 22.6247 18.4111C22.5865 18.4785 22.4122 18.716 22.3361 18.859C22.0437 19.3972 22.0676 19.9541 21.8329 20.523C21.6498 20.9744 21.7649 21.3138 21.6394 21.7958C21.5002 22.3192 21.4358 22.4535 21.53 23.0236C21.7591 24.3104 21.2541 24.0208 21.5114 25.4704C21.6156 26.0733 21.4612 26.1214 21.3795 26.6748C21.3452 26.9387 21.3596 27.1597 21.5461 27.1928C21.6626 27.2203 21.734 27.1927 21.8378 27.2376C21.9189 27.2666 21.9519 27.3228 22.0458 27.3186C22.364 27.2883 22.3593 26.5578 22.3384 26.2055C22.3212 25.7629 22.3763 25.2846 22.347 24.8588C22.3177 24.433 22.5531 23.8484 22.2793 23.6469C21.9261 23.3751 22.4309 22.5319 22.4362 21.268C22.4329 20.2092 22.3693 20.3272 22.5767 19.2836C22.6338 19.035 22.6053 18.8803 22.7973 18.7817C22.9669 19.2257 22.7501 22.2147 22.7223 22.8891C22.7043 23.3251 22.5977 26.4815 23.1275 26.4582C23.6688 26.4344 23.8247 23.2182 23.8433 22.7659C23.8581 22.1165 23.911 19.1265 24.0921 18.7247C24.2883 18.8144 24.2453 18.9972 24.271 19.234C24.3985 20.1314 24.3451 20.2897 24.2479 21.2214C24.1823 21.955 24.3278 22.4164 24.3589 23.0882C24.4111 23.8167 24.0373 23.2007 24.0557 24.1686C24.0637 24.8333 23.863 26.5573 23.9084 26.8841C23.9681 27.4313 24.2854 27.1467 24.4046 27.1083C24.7502 26.9948 24.8983 27.1029 24.8651 26.4806C24.8194 25.8834 24.6764 25.931 24.8438 25.2912C24.9291 24.9261 25.0452 24.3956 24.9426 24.0313C24.8094 23.5612 24.9138 23.3018 25.0152 22.8377C25.1568 22.2566 25.1036 22.1199 25.0067 21.615C24.9199 21.1592 25.0754 20.8074 24.9058 20.3633C24.6499 19.7259 24.828 19.1193 24.407 18.4973C24.3628 18.4335 24.3059 18.3871 24.2855 18.3141C24.2269 18.0293 24.4566 17.5845 23.9513 17.3031L24.0915 17.0339C24.4063 17.0858 24.3265 17.3191 24.7326 17.4409C25.7081 17.718 25.9576 17.9287 26.54 18.6257C26.6857 18.7915 26.8928 18.9057 27.1467 19.0091C27.8288 19.2828 28.2378 19.9048 28.779 19.881C29.0851 19.8675 28.9707 19.7905 29.1277 19.6934C29.3671 19.8714 29.1342 20.1033 29.2541 20.3279C29.3417 20.4881 29.458 20.5074 29.5773 20.757C29.7831 21.1831 30.1116 21.1931 30.53 21.2981C31.0179 21.4325 31.2644 21.4379 31.5439 21.7788C31.7792 22.0559 32.3009 22.2296 32.5778 21.7746C32.8044 21.4033 32.2711 20.9427 32.0869 20.8525C32.0066 20.8066 31.9021 20.7786 31.8097 20.7332C31.7294 20.6873 31.6617 20.6245 31.5924 20.5869C31.1582 20.286 31.4218 20.4466 31.2199 20.2175C30.94 19.8848 30.3653 20.1399 30.083 19.8655C29.9367 19.716 29.908 19.5532 29.7473 19.4614C29.4713 19.2995 29.4199 19.4083 29.1591 19.4611Z" fill="#8C593F"/>
<path fill-rule="evenodd" clip-rule="evenodd" d="M26.1004 22.1409C25.8103 21.4887 25.9923 21.9077 25.6921 21.502C25.3914 21.1051 25.6484 20.8552 25.3579 20.7697C25.1959 20.9985 25.4333 21.226 25.4711 21.446C25.5188 21.715 25.297 22.8163 25.2024 23.116C25.0507 23.6644 25.2109 23.4769 25.3149 23.8087C25.3971 24.1006 25.3008 24.4411 25.2646 24.7383C25.2185 25.2901 25.3939 24.7326 25.0938 25.4597C24.8322 26.1112 25.3991 26.3248 24.9974 26.9412C24.8717 27.1358 24.6982 27.3564 24.8269 27.6544C24.8701 27.7427 24.9601 27.8458 25.0905 27.8151C25.2442 27.7839 25.2379 27.6608 25.3585 27.5897C25.6965 27.3695 25.5889 27.6948 25.8935 27.1479C26.0715 26.82 26.2008 26.8143 26.2812 26.581C26.3483 26.3808 26.3225 25.0111 26.2724 24.8004C26.1932 24.4344 25.9837 23.5325 26.402 23.3582C26.5962 23.4974 26.5486 24.3612 26.5464 24.7063C26.5493 25.494 26.4338 25.442 26.8258 25.9089C27.2399 26.4079 26.7364 26.6517 26.9411 27.1023C27.0174 27.2468 27.2085 27.46 27.4049 27.2541C27.4907 27.1683 27.4583 27.0959 27.545 26.9856C27.5953 26.9013 27.6663 26.8982 27.7173 26.7976L27.4235 25.6533C27.3482 25.4844 26.9723 24.918 27.0052 24.6867C27.0406 24.3977 27.238 24.7341 27.2781 24.9127C27.3555 25.3194 27.497 25.0176 27.5804 25.2688C27.6329 25.4224 27.5492 26.0254 27.8752 26.3886L28.0225 25.9469C28.1952 25.4553 27.8473 25.068 27.5604 24.3254C27.4748 24.1156 27.4249 24.1917 27.3737 24.0055C27.3336 23.8432 27.3518 23.6783 27.2872 23.5415C27.234 23.4042 27.1405 23.4002 27.0147 23.3074C26.8437 23.1753 26.9026 23.1727 26.8052 22.9716C26.7293 22.819 26.6332 22.8639 26.4958 22.7879C26.4165 22.7426 26.1431 22.2542 26.1004 22.1409Z" fill="#8C593F"/>
<path fill-rule="evenodd" clip-rule="evenodd" d="M20.0706 23.6383C20.5153 23.6845 20.1996 24.7899 20.1057 25.0733C20.0383 25.2817 19.8989 26.6667 19.9498 26.8611C19.9906 27.0071 20.0588 27.0699 20.1378 27.1484C20.2285 27.2346 20.2492 27.2994 20.3034 27.4123C20.5416 27.9109 20.4952 27.6092 20.8046 27.7922C20.8046 27.7922 21.1262 28.2622 21.3338 27.7852C21.4635 27.4921 21.319 27.2849 21.2091 27.1094C20.846 26.5098 21.454 26.294 21.2242 25.6065C20.9619 24.8465 21.1496 25.4213 21.114 24.8561C21.027 23.2675 21.4948 24.1662 21.3101 23.2306C21.2522 22.9295 21.1072 21.8769 21.1889 21.6109C21.2567 21.3944 21.5013 21.1538 21.3573 20.9466C21.1664 21.0208 21.2089 21.1254 21.1532 21.3414C21.1106 21.5155 21.0473 21.6253 20.949 21.7361C20.5787 22.1707 20.819 21.7581 20.4865 22.4133C20.4218 22.5558 20.1322 23.0282 20.0243 23.0824C19.82 23.1897 19.8006 23.0923 19.6969 23.3348C19.6187 23.5267 19.6057 23.5523 19.4603 23.6571C18.9641 24.0152 19.2482 23.9538 19.054 24.3976C18.9883 24.5645 18.9307 24.5345 18.8277 24.7607C18.7757 24.8863 18.7114 25.0201 18.6597 25.1375C18.3667 25.6921 18.1321 25.9654 18.2667 26.4023L18.3355 26.7274C18.3659 26.8494 18.3342 26.76 18.379 26.8075C18.7242 26.4147 18.704 25.7669 18.7684 25.6331C18.8964 25.3814 18.9646 25.7228 19.1145 25.2158C19.1699 25.008 19.4031 24.7679 19.3913 25.0559C19.3677 25.3362 18.9709 25.8459 18.8556 26.0808L18.4909 27.2378C18.8448 27.4933 18.6184 27.5685 18.8022 27.6674C19.0088 27.7817 19.1824 27.5605 19.2591 27.4175C19.4894 26.9559 18.9921 26.7724 19.4845 26.2172C19.8923 25.7314 19.7754 25.7121 19.8414 24.9703C19.8773 24.6156 19.8742 23.8442 20.0706 23.6383Z" fill="#8C593F"/>
<path fill-rule="evenodd" clip-rule="evenodd" d="M16.9218 18.8019C16.9769 18.6022 16.9203 18.5477 16.8192 18.4369C16.1895 17.7508 15.4565 19.006 15.3342 19.1179C15.0772 19.3671 13.689 19.9862 13.4297 20.2932C13.2694 20.4806 13.2576 20.7685 13.0713 21.0066C12.6741 21.525 12.9036 21.3753 12.9005 21.728C12.9037 21.9414 12.7484 21.9971 12.8115 22.1834C12.853 22.313 13.0046 22.3471 13.1346 22.3251C13.7723 22.2476 13.6468 21.5799 14.2229 21.2922C14.4387 21.1843 14.6972 21.1893 14.9619 21.0298C15.1784 20.9051 15.3405 20.685 15.489 20.4894C16.137 19.6079 16.6384 19.6929 16.9218 18.8019Z" fill="#8C593F"/>
<path fill-rule="evenodd" clip-rule="evenodd" d="M30.8243 19.2575C31.1542 19.5141 31.39 20.0699 31.7227 20.2688C32.2729 20.5977 32.5718 20.1901 32.9154 20.9715C33.1627 21.5267 33.669 21.5044 33.8061 21.3099C33.9311 21.1321 33.8043 21.0638 33.7872 20.9087C33.7324 20.5335 34.048 20.569 33.7012 20.1409C33.5 19.8955 33.5444 19.6638 33.4005 19.4566C33.19 19.1458 31.8016 18.6321 31.5632 18.4291C31.3252 18.2179 31.1303 17.5289 30.4681 17.6319C30.2554 17.6657 29.9626 17.9253 29.9766 18.1545C29.9909 18.3755 30.1776 18.6954 30.278 18.8225C30.4905 19.0837 30.5625 19.0555 30.8243 19.2575Z" fill="#8C593F"/>
<path fill-rule="evenodd" clip-rule="evenodd" d="M19.7798 21.0159C20.0213 21.711 19.1841 22.9301 19.7142 22.8987C20.1389 22.8637 20.6739 21.2721 20.896 21.0244C21.3637 20.5116 21.2033 20.6909 21.4981 19.8156C21.7127 19.1662 22.3095 18.6552 22.3288 18.1866C21.798 18.2344 21.4922 18.8227 21.3152 19.1261C21.2019 19.3114 21.1422 19.3309 21.031 19.4667C20.8336 19.6971 20.7505 19.9963 20.4275 20.142C19.8403 20.4221 19.6695 20.8648 19.4383 21.056C19.2678 21.2031 19.165 21.1337 18.9968 21.2232C18.8163 21.3213 18.5428 21.6946 18.406 21.881C18.1949 22.1527 18.0575 22.356 17.8587 22.619C17.71 22.8059 17.3588 23.0681 17.3915 23.4111C17.4558 23.556 17.6292 23.6304 17.6107 23.7872C17.5906 23.9853 17.3651 24.0522 17.4963 24.2763C17.8436 24.4006 18.2223 23.1936 18.4602 22.8386C18.598 22.6272 18.8663 22.3937 18.9476 22.1277C19.0136 21.9526 19.02 21.7964 19.1647 21.708C19.3459 21.5936 19.4109 21.7216 19.5711 21.5342C19.6103 21.4423 19.6027 21.3356 19.6198 21.212C19.6495 21.0461 19.6612 21.0537 19.7798 21.0159Z" fill="#8C593F"/>
<path fill-rule="evenodd" clip-rule="evenodd" d="M25.5288 18.899C25.3666 18.553 25.1038 18.0968 24.6108 18.0859C24.5869 18.3744 24.8205 18.6923 24.9644 18.9157C25.4939 19.746 25.3034 20.0994 25.5785 20.5469C25.7325 20.8025 25.8544 20.6988 26.0324 21.2164C26.126 21.5078 26.5378 22.6306 26.8691 22.5748C27.3538 22.4958 26.6363 21.3783 26.9344 20.7002C27.074 20.7353 27.0736 20.7435 27.0776 20.9237C27.1112 21.5378 27.2449 21.1461 27.5179 21.3558C27.632 21.441 27.6367 21.6048 27.6888 21.7672C27.7717 22.0428 27.9881 22.1974 28.1313 22.4372C28.3073 22.725 28.5987 23.927 28.9575 23.7716C29.096 23.5438 28.8987 23.4949 28.8831 23.2908C28.8775 23.1351 29.0584 23.0288 29.1342 22.894C29.1954 22.5463 28.8532 22.2989 28.7193 22.1245C28.5078 21.8382 27.9358 20.9028 27.6683 20.8244C27.448 20.752 27.4085 20.8521 27.2397 20.6792C26.9571 20.4123 26.9791 20.1571 26.3097 19.8666C26.0676 19.7539 25.9522 19.4227 25.7952 19.2405C25.6964 19.1133 25.6271 19.0757 25.5288 18.899Z" fill="#8C593F"/>
<path fill-rule="evenodd" clip-rule="evenodd" d="M16.9152 26.9547C17.0616 27.1042 17.068 26.948 17.1026 27.2583C17.1336 27.6427 17.4836 27.4219 17.6388 27.0788C17.8591 26.585 17.4089 26.6706 18.1224 25.8921C18.2212 25.7813 18.2022 25.6588 18.2796 25.4994C18.3554 25.3646 18.4049 25.3136 18.447 25.1389C18.5453 24.7488 18.618 24.688 18.7614 24.3536C18.8908 24.0686 18.9138 23.7889 19.019 23.5213C19.1894 23.0867 19.3189 23.3684 19.3443 22.7518C19.3462 22.4154 19.4682 22.0324 19.4305 21.7955C19.1093 21.8998 18.9854 22.6198 18.6985 23.0263C18.423 23.4323 18.2118 23.7209 17.9565 24.2081C17.7013 24.7034 17.525 24.9904 17.2485 25.4215C16.7967 26.1308 17.0015 25.9985 16.957 26.5095C16.9387 26.675 16.9115 26.7663 16.9152 26.9547Z" fill="#8C593F"/>
<path fill-rule="evenodd" clip-rule="evenodd" d="M28.1852 23.1415C28.0643 22.9414 27.9646 22.7981 27.8428 22.6068C27.7103 22.3991 27.5983 21.9857 27.4467 21.6717C27.3394 21.4222 27.3142 21.4641 27.2211 21.4519C27.1633 21.7168 27.2536 22.0904 27.2273 22.4366C27.2036 23.0125 27.3796 22.7336 27.5026 23.1716C27.5956 23.4793 27.5746 23.7101 27.7029 24.0081C27.9163 24.5241 27.8244 24.1913 27.9423 24.7528C27.9825 24.9151 28.0387 24.9784 28.0919 25.1157C28.1764 25.3499 28.0717 25.3138 28.2294 25.4791C28.7925 26.0617 28.4337 26.2171 28.5936 26.6203C28.7002 26.8867 29.0291 27.1672 29.1073 26.696C29.1654 26.4223 29.1958 26.5443 29.3191 26.4074C29.351 26.2006 29.3193 26.1118 29.3156 25.9235C29.322 25.7673 29.3629 25.634 29.3567 25.4946C29.3444 25.224 28.9133 24.5704 28.7705 24.3219C28.6281 24.0902 28.406 23.4925 28.1852 23.1415Z" fill="#8C593F"/>
<path fill-rule="evenodd" clip-rule="evenodd" d="M26.4916 16.6414C26.5904 17.0967 27.2286 16.9947 27.6907 16.9086C28.1881 16.8128 28.7036 16.8478 29.1655 16.7535C29.6274 16.6593 30.0036 16.3716 30.4507 16.3607C30.8034 16.3533 31.6335 16.4564 31.6868 16.0107C31.584 15.9413 31.5353 15.9848 31.4436 15.9231C31.3513 15.8777 31.3653 15.8282 31.2863 15.7496C31.0646 15.7099 30.875 15.7515 30.6422 15.7041C30.0598 15.5901 29.5198 15.86 28.8543 16.0452C27.5228 16.4238 27.718 15.9556 26.4916 16.6414Z" fill="#8C593F"/>
<path fill-rule="evenodd" clip-rule="evenodd" d="M15.3979 16.7276C15.4028 17.1789 16.3275 16.9823 16.6451 16.9683C17.0685 16.9497 17.4227 17.1965 17.867 17.2508C18.2297 17.2925 18.6447 17.2003 19.3698 17.2749C19.8145 17.321 20.4351 17.3676 20.56 16.9025C20.2606 16.7516 19.9154 16.5777 19.5035 16.5958C17.8791 16.6673 17.3749 16.0821 16.4478 16.3364C16.222 16.3958 16.0472 16.3703 15.8214 16.4297C15.7233 16.5242 15.7571 16.5641 15.6608 16.6259C15.5403 16.6964 15.5192 16.6403 15.3979 16.7276Z" fill="#8C593F"/>
<path fill-rule="evenodd" clip-rule="evenodd" d="M13.6155 18.0778C13.7284 17.9006 13.6437 17.6827 13.5176 17.5981C13.1751 17.3589 12.6611 17.8574 12.6008 17.8927C12.1449 18.1181 11.3467 18.1119 11.0784 18.3454C10.9317 18.4834 10.9155 18.5987 10.7577 18.7127C10.4548 18.9396 10.6127 18.8093 10.5167 19.1416C10.4889 19.2493 10.244 19.4818 10.4868 19.5782C10.891 19.7489 11.0647 19.2327 11.3735 19.1534C11.5755 19.1032 11.7731 19.1439 11.9627 19.103C12.3185 19.0216 12.4948 18.7346 12.7939 18.5986C12.9505 18.526 13.402 18.4078 13.6155 18.0778Z" fill="#8C593F"/>
<path fill-rule="evenodd" clip-rule="evenodd" d="M35.8454 18.3051C35.9461 18.424 36.0831 18.5245 36.3206 18.4564C36.6174 18.3776 36.45 18.1714 36.4062 18.0832C36.2871 17.8423 36.5115 17.8162 36.2253 17.6234C36.0197 17.4846 36.0901 17.4815 35.9327 17.3081C35.6746 17.0157 34.9181 17.1229 34.4439 16.9466C34.3281 16.9022 33.9109 16.4778 33.5501 16.6822C33.4296 16.7533 33.2808 16.9402 33.3436 17.1346C33.4261 17.4184 33.8311 17.5565 34.0749 17.6278C34.3997 17.7287 34.5185 17.9778 34.8557 18.0694C35.3446 18.2044 35.4406 17.8714 35.8454 18.3051Z" fill="#8C593F"/>
<path fill-rule="evenodd" clip-rule="evenodd" d="M12.9321 17.2699C12.9938 17.2014 13.024 17.036 12.9695 16.932C12.8611 16.7069 12.3958 16.8833 12.1135 16.8876C11.7373 16.896 11.8509 16.9812 11.6227 17.1146C11.4418 17.2209 11.203 17.0429 11.0783 17.2124C10.9419 17.3907 11.0842 17.36 11.2292 17.5421C11.3746 17.716 11.7865 17.6979 11.8826 17.653C12.0263 17.589 12.2076 17.4583 12.351 17.4025C12.5419 17.3284 12.8208 17.4063 12.9321 17.2699Z" fill="#8C593F"/>
<path fill-rule="evenodd" clip-rule="evenodd" d="M35.6583 16.5579C35.861 16.4914 35.7428 16.5047 35.853 16.3934C35.9874 16.2642 36.0188 16.3617 36.0139 16.1891C36.001 15.9354 35.6405 16.1316 35.4896 16.0807C35.304 16.0231 35.3459 15.8653 35.0398 15.8788C34.7457 15.8917 33.8948 15.7238 34.0835 16.2741C34.1574 16.4762 34.4321 16.3652 34.6303 16.4059C35.0733 16.4935 34.9676 16.7856 35.6583 16.5579Z" fill="#8C593F"/>
<path fill-rule="evenodd" clip-rule="evenodd" d="M22.26 16.401C22.0347 16.1729 20.8895 15.7305 20.5298 15.6318C20.0304 15.4978 18.8124 15.3955 18.2236 15.4377C18.3478 15.5556 20.9689 16.1047 21.2245 16.1673C21.5377 16.2443 21.9439 16.366 22.26 16.401Z" fill="#8C593F"/>
<path fill-rule="evenodd" clip-rule="evenodd" d="M16.9343 17.3577C16.8522 17.3532 16.1886 17.202 16.2743 17.6986C16.3339 17.9584 16.5746 17.825 16.8078 17.8636C17.2281 17.919 17.1793 18.2575 17.8466 18.0314C17.9658 17.9936 17.9796 17.9354 18.0533 17.8664C18.1514 17.7719 18.1487 17.8378 18.2368 17.6943C18.1673 17.3855 17.9947 17.5816 17.7493 17.5517C17.5266 17.537 17.5813 17.3455 17.311 17.3493C17.1815 17.3468 17.0626 17.3765 16.9343 17.3577Z" fill="#8C593F"/>
<path fill-rule="evenodd" clip-rule="evenodd" d="M28.7584 17.2304C28.8354 17.3585 28.8378 17.3008 28.9389 17.4115C29.04 17.5217 28.9703 17.5085 29.1448 17.5421C29.8557 17.683 29.7163 17.3529 30.2134 17.2652C30.4499 17.2222 30.6587 17.2951 30.7272 17.0623C30.8667 16.5307 30.1398 16.7762 30.0571 16.788C29.9389 16.8014 29.8337 16.7897 29.7275 16.8025C29.4446 16.8231 29.4836 17.0268 29.2357 17.054C28.9879 17.0806 28.853 16.9306 28.7584 17.2304Z" fill="#8C593F"/>
<path fill-rule="evenodd" clip-rule="evenodd" d="M24.8258 16.2878C25.1216 16.2341 25.5631 16.0669 25.8612 15.9711L28.957 14.9651C27.9227 14.978 26.6416 15.2723 25.7048 15.7732C25.4282 15.9169 25.0095 16.0994 24.8258 16.2878Z" fill="#8C593F"/>
<path fill-rule="evenodd" clip-rule="evenodd" d="M30.6381 22.6391C30.7055 22.71 31.2239 23.2533 31.4447 23.0225C31.6904 22.7575 30.6536 21.6947 30.2747 21.769C30.2468 22.156 30.4815 22.4494 30.6381 22.6391Z" fill="#8C593F"/>
<path fill-rule="evenodd" clip-rule="evenodd" d="M16.3397 22.3831C15.9771 22.3415 14.8368 23.5001 15.062 23.7444C15.2645 23.9572 15.8292 23.3656 15.9032 23.2885C16.0757 23.0924 16.3476 22.7604 16.3397 22.3831Z" fill="#8C593F"/>
<path fill-rule="evenodd" clip-rule="evenodd" d="M13.2043 15.8057C13.0123 15.9043 12.9989 15.9381 12.7781 15.8902C12.6151 15.8561 11.9363 16.0832 11.8726 16.2012C11.76 16.3702 11.8815 16.554 12.0467 16.5386C12.2001 16.5155 12.2748 16.422 12.533 16.4188C12.7448 16.4095 12.8827 16.4855 13.0407 16.3639C13.1738 16.2679 13.5255 16.0063 13.4271 15.8297C13.3601 15.725 13.288 15.7694 13.2043 15.8057Z" fill="#8C593F"/>
<path fill-rule="evenodd" clip-rule="evenodd" d="M33.7757 14.9164C33.6651 15.0365 33.713 15.0094 33.7679 15.1059C34.0496 15.6846 34.46 15.4117 34.7875 15.4467C34.9393 15.4645 35.0983 15.5971 35.2216 15.4602C35.5778 15.0914 34.8866 15.0398 34.7132 14.9653C34.4014 14.8394 34.4898 14.967 34.2312 14.9784C34.0074 14.9888 33.9354 14.7535 33.7757 14.9164Z" fill="#8C593F"/>
<path fill-rule="evenodd" clip-rule="evenodd" d="M11.6726 15.9149C11.6958 15.922 11.6448 16.0226 11.8967 15.8969C12.0525 15.8161 12.3362 15.7792 12.6463 15.6666C12.9442 15.5633 12.9263 15.72 13.1569 15.529C13.3148 15.3987 13.4557 15.4012 13.5559 15.2571C13.4752 15.2194 12.6255 15.3144 12.4138 15.3237C12.249 15.3309 11.9429 15.3444 11.7995 15.4002C11.6444 15.4646 11.5843 15.771 11.6726 15.9149Z" fill="#8C593F"/>
<path fill-rule="evenodd" clip-rule="evenodd" d="M33.6585 14.3472C33.7566 14.5314 33.8765 14.4773 34.047 14.6094C34.2512 14.7808 34.2573 14.6327 34.5365 14.7031L35.2703 14.8593C35.2819 14.8669 35.351 14.897 35.3626 14.9047C35.5147 14.9143 35.4327 14.9097 35.4933 14.8663C35.5931 14.7304 35.5582 14.4283 35.4436 14.3676C35.2594 14.2773 34.4448 14.3789 34.1983 14.3729C34.0222 14.3638 33.8374 14.2899 33.6585 14.3472Z" fill="#8C593F"/>
<path fill-rule="evenodd" clip-rule="evenodd" d="M33.0323 17.5441C32.3003 17.0672 31.5825 17.3699 31.8861 17.7097C32.1779 18.0413 33.0038 18.2348 33.0323 17.5441Z" fill="#8C593F"/>
<path fill-rule="evenodd" clip-rule="evenodd" d="M13.9084 18.3766C14.0135 19.2505 14.9336 18.5857 15.0568 18.4494C15.34 18.1332 14.8745 18.0222 14.6022 18.0755C14.3892 18.1169 14.0883 18.2948 13.9084 18.3766Z" fill="#8C593F"/>
<path fill-rule="evenodd" clip-rule="evenodd" d="M22.4453 27.3183C22.8179 27.6877 22.9559 27.1807 23.0999 27.1092C23.2385 27.1688 23.3471 27.6644 23.7395 27.2614C23.7122 27.0653 23.341 26.6634 23.1178 26.6732C22.9416 26.6809 22.4909 27.0702 22.4453 27.3183Z" fill="#8C593F"/>
<path fill-rule="evenodd" clip-rule="evenodd" d="M11.3605 20.0739C11.4395 20.1525 11.8326 20.2993 11.9988 20.2594C12.2483 20.1908 12.7114 19.2104 11.7429 19.6219C11.5283 19.714 11.3257 19.7805 11.3605 20.0739Z" fill="#8C593F"/>
<path fill-rule="evenodd" clip-rule="evenodd" d="M34.6249 18.5324C34.4851 18.7928 34.5139 18.9393 34.6584 19.1465C34.7916 19.3378 35.067 19.2105 35.2941 19.1185C35.8657 18.9124 35.099 18.4207 34.6249 18.5324Z" fill="#8C593F"/>
<path fill-rule="evenodd" clip-rule="evenodd" d="M36.1297 15.4044C35.921 15.3397 35.8175 15.2866 35.6463 15.4501C35.7655 15.691 36.1205 15.6265 36.3863 15.7457C36.6866 15.8721 36.8347 15.9802 37.2112 15.9636C37.4818 15.9517 37.4982 15.8445 37.5107 15.8189C37.3175 15.6552 37.2556 15.7318 37.0348 15.684C36.8717 15.6498 36.8057 15.5463 36.631 15.5045C36.4565 15.4557 36.3041 15.4543 36.1297 15.4044Z" fill="#8C593F"/>
<path fill-rule="evenodd" clip-rule="evenodd" d="M9.83547 17.1688C10.2709 17.1496 10.3339 17.0485 10.7053 16.8762C11.041 16.7137 11.3555 16.7737 11.4607 16.5067C11.2907 16.3501 11.1459 16.4548 10.9429 16.5295C10.7764 16.5781 10.5872 16.6109 10.432 16.6753C10.2525 16.749 10.2139 16.8409 10.0123 16.8823C9.79889 16.933 9.64727 16.8984 9.58075 17.0985C9.68404 17.1429 9.6947 17.175 9.83547 17.1688Z" fill="#8C593F"/>
<path fill-rule="evenodd" clip-rule="evenodd" d="M9.48493 19.1222C9.47714 19.311 9.59947 19.7659 9.82894 19.6161L10.1959 18.9844C10.3633 18.6239 10.2847 18.2579 10.0089 18.6727C9.89625 18.8417 9.9334 18.7993 9.74021 18.9143C9.60787 18.9934 9.55924 19.0369 9.48493 19.1222Z" fill="#8C593F"/>
<path fill-rule="evenodd" clip-rule="evenodd" d="M16.3255 25.888C16.4003 25.7782 16.4006 25.7695 16.4538 25.6281C16.5192 25.4693 16.9229 25.0821 16.7594 24.7693C16.5363 24.7628 16.5041 24.9777 16.3821 25.0814C16.2361 25.2031 16.1295 25.224 15.9952 25.3527C15.9941 25.3772 15.9485 25.9046 16.3255 25.888Z" fill="#8C593F"/>
<path fill-rule="evenodd" clip-rule="evenodd" d="M22.0071 28.8225C22.1716 28.8234 22.1846 28.7984 22.2825 28.6958C22.4172 28.5583 22.7998 28.3937 22.9047 28.1348C23.063 27.7177 22.5547 28.0764 22.5547 28.0764C22.3751 28.1657 21.7228 28.0304 22.0071 28.8225Z" fill="#8C593F"/>
<path fill-rule="evenodd" clip-rule="evenodd" d="M23.7996 28.6454C23.8786 28.724 23.913 28.7469 24.0547 28.7325C24.1315 28.5732 24.1868 28.3817 24.1243 28.1797C23.9797 27.9888 23.7509 28.1222 23.5436 28.0249C23.4632 27.9789 23.3962 27.8998 23.3015 27.9122C23.195 27.9331 23.1799 28.0077 23.2106 28.1215C23.2634 28.267 23.4677 28.4384 23.5832 28.4909C23.7552 28.5735 23.6871 28.5189 23.7996 28.6454Z" fill="#8C593F"/>
<path fill-rule="evenodd" clip-rule="evenodd" d="M30.3635 24.7288C30.2627 24.6099 30.0886 24.5524 29.9757 24.4503C29.8626 24.34 29.8697 24.1675 29.6335 24.2029C29.5111 24.6104 29.8188 24.8348 29.9027 25.0859C30.058 25.5876 30.3984 25.0309 30.3635 24.7288Z" fill="#8C593F"/>
<path fill-rule="evenodd" clip-rule="evenodd" d="M24.6174 29.0371C24.7543 29.1375 25.1864 29.2005 25.2485 28.8289C25.2666 28.6803 25.2614 28.5165 25.3137 28.3827C25.3909 28.2152 25.4485 28.2453 25.3973 28.059C25.0605 27.9586 24.8954 28.557 24.7476 28.7195C24.6617 28.8216 24.6134 28.8569 24.6174 29.0371Z" fill="#8C593F"/>
<path fill-rule="evenodd" clip-rule="evenodd" d="M21.4214 29.0713C21.4252 28.981 21.3683 28.934 21.3121 28.8708C21.1558 28.6722 21.0599 28.1429 20.7145 28.2652C20.6481 28.4485 20.7418 28.4612 20.7826 28.6072C20.8645 28.9073 20.6632 29.2199 21.0144 29.262C21.1658 29.2874 21.4243 29.2929 21.4214 29.0713Z" fill="#8C593F"/>
<path fill-rule="evenodd" clip-rule="evenodd" d="M12.5061 21.3285C12.6732 21.2636 13.0926 20.4981 13.0542 20.2787C12.9967 19.9693 12.7316 20.4162 12.6818 20.4754C12.4982 20.6476 12.4071 20.5858 12.2566 20.8141C12.2362 21.0449 12.3678 21.2607 12.5061 21.3285Z" fill="#8C593F"/>
<path fill-rule="evenodd" clip-rule="evenodd" d="M37.2773 18.3424C37.3397 18.2576 37.4199 18.0161 37.425 17.8925C37.2793 17.7267 37.1962 17.7467 37.0369 17.6222C36.9126 17.5043 36.9221 17.2741 36.695 17.3661C36.5841 17.773 36.8575 17.9827 36.9525 18.2415C37.0151 18.4278 37.1282 18.5374 37.2773 18.3424Z" fill="#8C593F"/>
<path fill-rule="evenodd" clip-rule="evenodd" d="M34.0913 19.5159C34.0354 19.4444 33.8283 19.0515 33.7451 19.367C33.689 19.5912 34.0598 20.2806 34.185 20.374C34.3639 20.3167 34.503 20.0726 34.5008 19.8347C34.3575 19.6112 34.249 19.6817 34.0913 19.5159Z" fill="#8C593F"/>
<path fill-rule="evenodd" clip-rule="evenodd" d="M32.3386 22.4166C32.0393 22.2657 32.1247 22.1881 31.6645 22.2409C31.591 22.5973 31.7562 22.3026 32.0296 22.7909C32.1722 23.0308 32.2891 23.0506 32.5561 22.8498C32.9326 22.5551 32.5233 22.5074 32.3386 22.4166Z" fill="#8C593F"/>
<path fill-rule="evenodd" clip-rule="evenodd" d="M18.3844 18.4017C18.0857 18.2345 17.0425 18.7563 17.3609 19.0128C17.5873 19.2007 18.4637 18.7514 18.3844 18.4017Z" fill="#8C593F"/>
<path fill-rule="evenodd" clip-rule="evenodd" d="M29.5293 18.4783C29.8824 18.1835 28.9341 17.8151 28.5412 17.9388C28.4773 18.3524 29.2978 18.677 29.5293 18.4783Z" fill="#8C593F"/>
<path fill-rule="evenodd" clip-rule="evenodd" d="M14.9158 23.0116C14.652 22.8591 14.395 23.1084 14.2141 23.2147C14.0215 23.3297 13.6426 23.4039 13.9493 23.6534C14.404 24.0273 14.4498 23.4836 14.7041 23.3002C14.8371 23.2042 14.9067 23.2337 14.9158 23.0116Z" fill="#8C593F"/>
<path fill-rule="evenodd" clip-rule="evenodd" d="M10.7989 20.8694C11.05 20.4726 10.7295 20.848 11.0204 20.6217C11.2878 20.4127 10.6251 19.9578 10.3926 20.1815C10.3551 20.2327 10.335 20.1515 10.3342 20.4634C10.3379 20.6512 10.2433 20.9509 10.7989 20.8694Z" fill="#8C593F"/>
<path fill-rule="evenodd" clip-rule="evenodd" d="M36.4145 19.6033C36.4785 19.4772 36.6407 18.6741 35.977 19.1053C35.8925 19.1585 35.6982 19.3148 35.7159 19.4531C35.7329 19.6083 35.7956 19.5154 35.8749 19.5858C35.9429 19.6404 35.9181 19.674 35.9619 19.7623C36.1491 19.7791 36.3257 19.7632 36.4145 19.6033Z" fill="#8C593F"/>
<path fill-rule="evenodd" clip-rule="evenodd" d="M11.2764 20.9639C11.3613 21.4693 12.0445 21.4229 11.892 20.8548C11.729 20.2383 11.202 20.4831 11.2764 20.9639Z" fill="#8C593F"/>
<path fill-rule="evenodd" clip-rule="evenodd" d="M35.4466 19.9901C35.6433 19.4973 35.1512 19.174 34.9038 19.7597C34.6191 20.4041 35.288 20.416 35.4466 19.9901Z" fill="#8C593F"/>
<path fill-rule="evenodd" clip-rule="evenodd" d="M14.3992 15.3271C14.4973 15.5118 14.7066 15.5596 14.9413 15.5743C15.1995 15.5874 15.4721 15.5265 15.5851 15.3488C15.4171 15.1426 14.6003 15.0064 14.3992 15.3271Z" fill="#8C593F"/>
<path fill-rule="evenodd" clip-rule="evenodd" d="M37.3762 14.7821C37.3428 14.4554 36.6567 14.2802 36.3007 14.3698C36.2637 14.6996 37.0605 15.0421 37.3762 14.7821Z" fill="#8C593F"/>
<path fill-rule="evenodd" clip-rule="evenodd" d="M9.78945 15.9895C9.95913 16.1543 10.2335 16.052 10.4724 15.9513C10.6522 15.8695 10.9065 15.6861 10.9026 15.489C10.5992 15.4366 9.83779 15.6755 9.78945 15.9895Z" fill="#8C593F"/>
<path fill-rule="evenodd" clip-rule="evenodd" d="M31.6147 14.6422C31.7672 14.9311 32.7335 14.8641 32.796 14.4838C32.5694 14.2715 31.7883 14.4211 31.6147 14.6422Z" fill="#8C593F"/>
<path fill-rule="evenodd" clip-rule="evenodd" d="M35.3273 20.6019C35.404 20.7382 35.3926 20.7224 35.5667 20.7805C35.9374 20.9038 36.398 20.8422 36.4356 20.5124C36.1957 20.3339 35.5465 20.4119 35.3273 20.6019Z" fill="#8C593F"/>
<path fill-rule="evenodd" clip-rule="evenodd" d="M10.2609 21.6645C10.2525 21.8702 10.5535 21.9797 10.7779 21.9536C10.9075 21.9397 11.0033 21.9023 11.1346 21.8477C11.266 21.7924 11.3252 21.7817 11.3541 21.6495C11.1379 21.4781 10.4914 21.4902 10.2609 21.6645Z" fill="#8C593F"/>
<path fill-rule="evenodd" clip-rule="evenodd" d="M14.2178 16.8453C14.0775 16.827 14.1154 16.7677 13.9482 16.8327C13.9656 16.9797 13.9762 17.0118 14.0905 17.0807C14.3543 17.2331 14.5014 17.087 14.77 17.1247C14.9218 17.1424 14.9448 17.1664 15.0876 17.1107C15.1091 16.8799 15.027 16.8754 14.571 16.8134C14.3843 16.7966 14.3813 16.8706 14.2178 16.8453Z" fill="#8C593F"/>
<path fill-rule="evenodd" clip-rule="evenodd" d="M33.1182 16.8916C33.1099 16.5225 32.3047 16.6731 32.2462 16.6676C32.0707 16.6427 32.1558 16.5732 31.9642 16.6637C32.0276 17.1205 32.5529 16.9171 32.7632 16.9404C32.9275 16.9576 32.9724 17.0051 33.1182 16.8916Z" fill="#8C593F"/>
<path fill-rule="evenodd" clip-rule="evenodd" d="M11.9707 23.2149C12.0262 23.5737 12.7884 23.6059 12.5836 23.1716C12.5407 23.0752 12.3841 22.8848 12.2555 22.8579C12.0462 22.8095 11.9553 23.0189 11.9707 23.2149Z" fill="#8C593F"/>
<path fill-rule="evenodd" clip-rule="evenodd" d="M13.9097 17.7693C14.0373 17.805 14.0972 17.7774 14.2392 17.7548C14.4408 17.7134 14.9861 17.8697 15.064 17.4067C14.8791 17.3328 14.9227 17.4129 14.7572 17.4365C14.71 17.4467 13.8559 17.3691 13.9097 17.7693Z" fill="#8C593F"/>
<path fill-rule="evenodd" clip-rule="evenodd" d="M26.1348 28.4437C25.9111 28.4536 25.7794 28.517 25.7127 28.7084C25.5112 29.3166 26.3818 29.5738 26.1348 28.4437Z" fill="#8C593F"/>
<path fill-rule="evenodd" clip-rule="evenodd" d="M12.1245 22.3472C12.1762 21.951 11.6272 21.5813 11.4646 21.8264C11.3634 21.995 11.5191 22.2098 11.6224 22.2791C11.7588 22.3796 11.946 22.3958 12.1245 22.3472Z" fill="#8C593F"/>
<path fill-rule="evenodd" clip-rule="evenodd" d="M19.9552 28.7331C19.736 29.2024 19.9383 29.7107 20.2328 29.4103C20.4537 29.1789 20.3943 28.623 19.9552 28.7331Z" fill="#8C593F"/>
<path fill-rule="evenodd" clip-rule="evenodd" d="M34.5094 21.3609C34.8942 21.4341 35.4014 21.1 35.1701 20.7244C34.8652 20.6965 34.4878 21.025 34.5094 21.3609Z" fill="#8C593F"/>
<path fill-rule="evenodd" clip-rule="evenodd" d="M16.2014 26.8704C16.4512 26.5062 15.6209 26.42 15.5263 26.7198C15.4726 26.8862 15.6407 27.076 15.7813 27.0861C15.9458 27.0865 16.1388 26.9633 16.2014 26.8704Z" fill="#8C593F"/>
<path fill-rule="evenodd" clip-rule="evenodd" d="M37.5947 14.8959C37.6824 15.0561 37.7099 14.9566 37.8586 15.0484C38.0645 15.1789 37.7507 15.1026 38.3725 15.4115C38.4528 15.4574 38.6276 15.4986 38.6455 15.3419C38.6513 15.202 38.4978 15.225 38.1923 14.9348C38.079 14.842 37.7231 14.636 37.5947 14.8959Z" fill="#8C593F"/>
<path fill-rule="evenodd" clip-rule="evenodd" d="M31.9772 16.3675C32.1396 16.418 32.1533 16.376 32.3191 16.3443C32.4614 16.3136 32.5536 16.3503 32.6834 16.3446C32.8951 16.3352 33.1128 16.1942 33.1327 15.9885C33.0286 15.9518 32.9435 16.0213 32.8373 16.0341C32.6838 16.0571 32.6749 15.9836 32.4729 16.0338C32.0329 16.1515 31.9642 16.1132 31.9772 16.3675Z" fill="#8C593F"/>
<path fill-rule="evenodd" clip-rule="evenodd" d="M34.5342 21.8941C34.1852 21.8112 33.7985 22.3536 33.9927 22.4928C34.2093 22.6555 34.7474 22.4183 34.5342 21.8941Z" fill="#8C593F"/>
<path fill-rule="evenodd" clip-rule="evenodd" d="M30.0131 26.1132C30.034 26.4655 30.5457 26.5907 30.7268 26.1883C30.8696 25.8539 30.1798 25.769 30.0131 26.1132Z" fill="#8C593F"/>
<path fill-rule="evenodd" clip-rule="evenodd" d="M8.47894 16.7288C8.63967 16.8201 8.90507 16.6443 9.06279 16.5309C9.18369 16.4517 9.18674 16.3777 9.28331 16.3077C9.44048 16.1943 9.47121 16.3075 9.56105 16.1232C9.43056 15.8666 9.04291 16.1542 8.94479 16.2487C8.59056 16.5843 8.46497 16.4996 8.47894 16.7288Z" fill="#8C593F"/>
<path fill-rule="evenodd" clip-rule="evenodd" d="M26.2586 27.4214C26.7885 27.3981 26.8015 26.7901 26.618 26.683C26.4338 26.5928 26.3534 26.8261 26.2663 26.9446C26.1158 27.1734 26.1965 27.2106 26.2586 27.4214Z" fill="#8C593F"/>
<path fill-rule="evenodd" clip-rule="evenodd" d="M17.6941 28.8662C17.7344 29.3159 18.3366 29.2399 18.2252 28.8102C18.0511 28.1854 17.6698 28.5961 17.6941 28.8662Z" fill="#8C593F"/>
<path fill-rule="evenodd" clip-rule="evenodd" d="M24.5732 27.2978C24.3528 27.2254 23.7609 27.6209 24.0323 27.8795C24.2134 28.0444 24.7421 27.7581 24.5732 27.2978Z" fill="#8C593F"/>
<path fill-rule="evenodd" clip-rule="evenodd" d="M19.8677 27.7021C20.0154 27.5397 20.0327 27.3993 19.9342 27.2233C19.8566 27.1115 19.7837 26.8849 19.6028 26.9917C19.3984 27.1154 19.4088 27.7223 19.8677 27.7021Z" fill="#8C593F"/>
<path fill-rule="evenodd" clip-rule="evenodd" d="M21.5712 27.7175C21.6605 28.1156 22.2472 28.1392 22.1591 27.6997C22.1087 27.4966 21.4302 27.1488 21.5712 27.7175Z" fill="#8C593F"/>
<path fill-rule="evenodd" clip-rule="evenodd" d="M28.3536 28.4693C28.4431 28.2931 28.3331 28.1089 28.2299 28.0477C28.0695 27.9483 27.9787 28.1571 27.9032 28.2837C27.6871 28.679 28.1089 28.9892 28.3536 28.4693Z" fill="#8C593F"/>
<path fill-rule="evenodd" clip-rule="evenodd" d="M29.141 23.3626C29.0883 23.5045 29.1222 23.5275 29.104 23.6924C29.0975 23.8486 29.0489 23.892 29.0328 23.9911C29.0264 24.1473 29.2082 24.2952 29.3743 24.2553C29.5639 24.2144 29.4352 23.9163 29.4074 23.7448C29.3713 23.4839 29.3292 23.3543 29.141 23.3626Z" fill="#8C593F"/>
<path fill-rule="evenodd" clip-rule="evenodd" d="M8.24682 17.2218C7.88145 17.246 7.67981 17.8705 7.91089 17.9592C8.03819 18.0025 8.53863 17.8327 8.24682 17.2218Z" fill="#8C593F"/>
<path fill-rule="evenodd" clip-rule="evenodd" d="M38.823 15.8769C38.4959 16.4004 38.9198 16.6604 39.0992 16.5874C39.3505 16.4774 39.1757 15.8695 38.823 15.8769Z" fill="#8C593F"/>
<path fill-rule="evenodd" clip-rule="evenodd" d="M17.3454 23.9149C17.3337 23.9072 17.3236 23.8745 17.2517 23.9027C17.2397 23.9032 17.2282 23.9037 17.2279 23.9119C17.1438 23.9569 17.0761 24.1728 17.0488 24.2648C16.9934 24.4726 16.7839 24.9991 17.2409 24.7323C17.5173 24.5805 17.358 24.456 17.3567 24.2099C17.351 24.0705 17.3872 24.0358 17.3454 23.9149Z" fill="#8C593F"/>
<path fill-rule="evenodd" clip-rule="evenodd" d="M11.1992 22.5596C11.1746 22.8644 11.8396 23.2622 11.969 22.6979C11.797 22.5909 11.4903 22.3414 11.1992 22.5596Z" fill="#8C593F"/>
<path fill-rule="evenodd" clip-rule="evenodd" d="M33.5214 18.2525C33.6713 17.745 33.3533 17.4803 33.1346 17.9495C33.0311 18.1758 33.0731 18.3054 33.2215 18.4053C33.3581 18.5145 33.4673 18.4277 33.5214 18.2525Z" fill="#8C593F"/>
<path fill-rule="evenodd" clip-rule="evenodd" d="M7.78956 18.6209C7.917 18.9516 8.58052 18.8159 8.58511 18.4136C8.32329 18.2116 7.94003 18.3926 7.78956 18.6209Z" fill="#8C593F"/>
<path fill-rule="evenodd" clip-rule="evenodd" d="M13.3618 19.0993C13.4139 19.5403 13.9205 19.2225 13.8067 18.8499C13.6726 18.4043 13.292 18.5194 13.3618 19.0993Z" fill="#8C593F"/>
<path fill-rule="evenodd" clip-rule="evenodd" d="M34.6361 21.7005C34.7098 22.1982 35.3936 21.8475 35.4202 21.4938C35.1584 21.2918 34.8056 21.5784 34.6361 21.7005Z" fill="#8C593F"/>
<path fill-rule="evenodd" clip-rule="evenodd" d="M38.3971 17.1022C38.3587 17.4652 38.9869 17.6179 39.1669 17.2405C39.0469 17.0078 38.6284 16.8947 38.3971 17.1022Z" fill="#8C593F"/>
<path fill-rule="evenodd" clip-rule="evenodd" d="M28.6617 27.8409C28.6676 28.2677 29.1763 28.1877 29.2358 27.8813C29.3096 27.5168 28.6552 27.4304 28.6617 27.8409Z" fill="#8C593F"/>
<path fill-rule="evenodd" clip-rule="evenodd" d="M17.4422 28.4076C17.5888 27.9822 16.9537 28.0108 16.8819 28.3258C16.8226 28.6152 17.2826 28.858 17.4422 28.4076Z" fill="#8C593F"/>
<path fill-rule="evenodd" clip-rule="evenodd" d="M27.6973 28.1712C27.6438 28.042 27.5986 28.0033 27.4342 28.0024C26.7774 27.9737 27.1067 28.534 27.4469 28.5516C27.5325 28.4571 27.6786 28.3361 27.6973 28.1712Z" fill="#8C593F"/>
<path fill-rule="evenodd" clip-rule="evenodd" d="M18.6184 28.9392C18.8308 28.9136 19.0515 28.6985 19.0373 28.4612C18.8324 28.3061 18.4901 28.3375 18.3848 28.6214C18.4383 28.7505 18.5394 28.8607 18.6184 28.9392Z" fill="#8C593F"/>
<path fill-rule="evenodd" clip-rule="evenodd" d="M14.5525 24.1189C14.3696 23.9954 13.5989 24.169 13.8229 24.4302C14.0025 24.6434 14.5965 24.4776 14.5525 24.1189Z" fill="#8C593F"/>
<path fill-rule="evenodd" clip-rule="evenodd" d="M32.6686 23.5347C32.6522 23.3632 32.5006 23.3286 32.326 23.2956C32.116 23.2635 32.0343 23.2508 31.899 23.3882C31.9662 23.7547 32.4678 23.8473 32.6686 23.5347Z" fill="#8C593F"/>
<path fill-rule="evenodd" clip-rule="evenodd" d="M29.8438 26.8117C30.1004 26.2831 29.5074 26.4244 29.3791 26.6843C29.2389 26.9529 29.6387 27.2309 29.8438 26.8117Z" fill="#8C593F"/>
<path fill-rule="evenodd" clip-rule="evenodd" d="M16.3353 27.3322C16.4467 27.7625 16.8647 27.5963 16.8528 27.3175C16.8412 27.0306 16.2147 26.8365 16.3353 27.3322Z" fill="#8C593F"/>
<path fill-rule="evenodd" clip-rule="evenodd" d="M9.83154 21.2486C9.85263 21.3052 10.0474 21.4282 10.165 21.4311C10.3063 21.4249 10.4755 21.311 10.4346 21.165C10.3729 20.9455 9.70535 20.901 9.83154 21.2486Z" fill="#8C593F"/>
<path fill-rule="evenodd" clip-rule="evenodd" d="M36.9182 19.9012C36.6675 19.7069 36.2359 19.9231 36.2975 20.1339C36.3808 20.3845 36.914 20.279 36.9182 19.9012Z" fill="#8C593F"/>
<path fill-rule="evenodd" clip-rule="evenodd" d="M32.3877 15.2409C32.2674 15.3038 32.2024 15.4545 32.2794 15.582C32.3349 15.6616 32.5331 15.7023 32.6753 15.6629C32.9608 15.5933 32.7115 15.087 32.3877 15.2409Z" fill="#8C593F"/>
<path fill-rule="evenodd" clip-rule="evenodd" d="M9.52419 17.5853C9.59608 17.8364 9.83293 17.7852 10.0131 17.6952C10.3494 17.5164 10.4723 17.6669 10.4945 17.4198C10.2654 17.2821 9.78471 17.5412 9.7727 17.5417C9.65386 17.5708 9.64375 17.5387 9.52419 17.5853Z" fill="#8C593F"/>
<path fill-rule="evenodd" clip-rule="evenodd" d="M14.5463 16.0333C14.2713 16.1518 14.1716 16.5751 14.6822 16.4375C15.0386 16.3397 14.9051 15.8778 14.5463 16.0333Z" fill="#8C593F"/>
<path fill-rule="evenodd" clip-rule="evenodd" d="M37.2416 16.3236C37.2064 16.317 36.8036 16.1131 36.5624 16.2715C36.5794 16.4266 36.5686 16.4108 36.7435 16.4357C37.1176 16.4769 37.0305 16.5953 37.3028 16.5426C37.4569 16.5032 37.4693 16.494 37.5102 16.3612C37.3832 16.3092 37.3692 16.3593 37.2416 16.3236Z" fill="#8C593F"/>
<path fill-rule="evenodd" clip-rule="evenodd" d="M9.75697 18.2067C9.84222 18.4246 10.1535 18.2713 10.2624 18.1926C10.6256 17.9305 10.6764 18.1249 10.6759 17.8463C10.536 17.8199 10.2857 17.9048 10.1657 17.9752C10.0337 18.0468 10.1041 18.0437 9.97276 18.0983C9.81727 18.1709 9.85591 18.079 9.75697 18.2067Z" fill="#8C593F"/>
<path fill-rule="evenodd" clip-rule="evenodd" d="M37.019 16.9093C36.9727 16.895 36.6544 16.6379 36.3336 16.7178C36.3258 16.9066 36.3271 16.874 36.5019 16.9158C36.734 16.9794 37.0848 17.309 37.2266 16.9991C37.1376 16.8872 37.17 16.9597 37.019 16.9093Z" fill="#8C593F"/>
<path fill-rule="evenodd" clip-rule="evenodd" d="M26.7324 28.483C26.4088 28.645 26.498 29.0432 26.7418 29.1145C26.8393 29.0363 26.8769 28.9689 26.8729 28.7887C26.8671 28.6249 26.8232 28.5529 26.7324 28.483Z" fill="#8C593F"/>
<path fill-rule="evenodd" clip-rule="evenodd" d="M19.7085 28.1604C19.7722 28.3217 19.9991 28.5252 20.2393 28.3913C20.3319 28.1411 19.9337 27.8386 19.7085 28.1604Z" fill="#8C593F"/>
<path fill-rule="evenodd" clip-rule="evenodd" d="M25.8648 28.1437C26.1072 28.2483 26.3394 28.0327 26.4165 27.8652C26.3606 27.7938 26.4175 27.8407 26.3375 27.7866C26.1202 27.6403 25.803 27.9248 25.8648 28.1437Z" fill="#8C593F"/>
<path fill-rule="evenodd" clip-rule="evenodd" d="M16.4785 15.3083C16.4888 15.3486 16.4383 15.4253 16.7427 15.4526C16.9185 15.4693 17.0478 15.4637 17.1687 15.3844C17.0968 15.1334 16.6065 15.056 16.4785 15.3083Z" fill="#8C593F"/>
<path fill-rule="evenodd" clip-rule="evenodd" d="M19.2803 29.4431C19.5074 29.3511 19.6782 28.9084 19.3419 28.8085C19.1593 28.9562 19.0989 29.287 19.2803 29.4431Z" fill="#8C593F"/>
<path fill-rule="evenodd" clip-rule="evenodd" d="M30.033 14.8197C30.1703 14.912 30.6168 14.9005 30.72 14.683C30.6883 14.5942 30.7114 14.6014 30.5954 14.5733C30.5372 14.5596 30.4082 14.5571 30.3609 14.5673C30.1835 14.5914 30.0742 14.6783 30.033 14.8197Z" fill="#8C593F"/>
<path fill-rule="evenodd" clip-rule="evenodd" d="M12.9206 23.8306C12.9859 23.9511 13.0701 24.1935 13.372 23.9911C13.416 23.7838 13.3825 23.7364 13.2922 23.6414C13.128 23.6492 13.0077 23.7115 12.9206 23.8306Z" fill="#8C593F"/>
<path fill-rule="evenodd" clip-rule="evenodd" d="M33.12 23.1206C33.3032 23.2359 33.5186 23.1357 33.5863 22.9198C33.5087 22.808 33.4055 22.7474 33.2284 22.7633C33.1305 22.8659 33.0934 22.9083 33.12 23.1206Z" fill="#8C593F"/>
<path fill-rule="evenodd" clip-rule="evenodd" d="M30.6623 25.1831C30.5164 25.5916 31.0437 25.9053 30.9979 25.2999C30.8961 25.2054 30.8519 25.1422 30.6623 25.1831Z" fill="#8C593F"/>
<path fill-rule="evenodd" clip-rule="evenodd" d="M15.4489 26.3204C15.6161 26.2554 15.7301 26.0537 15.6685 25.8429C15.3293 25.8002 15.1613 26.1771 15.4489 26.3204Z" fill="#8C593F"/>
<path fill-rule="evenodd" clip-rule="evenodd" d="M15.4851 25.4323C15.6767 25.3418 15.8819 24.9226 15.6112 24.9345C15.3875 24.9444 15.2342 25.2548 15.4851 25.4323Z" fill="#8C593F"/>
<path fill-rule="evenodd" clip-rule="evenodd" d="M30.8805 24.7546C31.1358 24.5461 31.0301 24.2558 30.795 24.2661C30.5363 24.2775 30.6842 24.6812 30.8805 24.7546Z" fill="#8C593F"/>
<path fill-rule="evenodd" clip-rule="evenodd" d="M29.0989 18.9143C29.1283 19.0608 29.1784 19.2721 29.3584 19.174C29.6591 19.013 29.4672 18.5292 29.0989 18.9143Z" fill="#8C593F"/>
<path fill-rule="evenodd" clip-rule="evenodd" d="M17.4665 19.2865C17.3083 19.425 17.2782 19.5741 17.4503 19.6812C17.622 19.7969 17.7128 19.5876 17.7549 19.4135C17.6875 19.342 17.5835 19.2895 17.4665 19.2865Z" fill="#8C593F"/>
<path fill-rule="evenodd" clip-rule="evenodd" d="M13.1051 19.9059C13.3135 19.9787 13.6608 19.8238 13.5548 19.541C13.3449 19.4933 13.0896 19.7017 13.1051 19.9059Z" fill="#8C593F"/>
<path fill-rule="evenodd" clip-rule="evenodd" d="M33.7255 18.9987C33.7564 18.8169 33.7095 18.819 33.5839 18.7338C33.4923 18.6721 33.447 18.6333 33.3164 18.6717C33.1633 18.9495 33.5104 19.0902 33.7255 18.9987Z" fill="#8C593F"/>
<path fill-rule="evenodd" clip-rule="evenodd" d="M29.7509 27.6286C29.9418 27.5544 30.0745 27.4666 30.0844 27.2282C29.8034 27.1992 29.7538 27.2672 29.6177 27.4378C29.6491 27.5342 29.6488 27.5423 29.7509 27.6286Z" fill="#8C593F"/>
<path fill-rule="evenodd" clip-rule="evenodd" d="M16.5311 28.0133C16.4197 27.8623 16.3642 27.7827 16.0915 27.8436C16.0586 28.0749 16.2193 28.1661 16.3817 28.2166L16.4801 28.1139C16.5178 28.0465 16.5046 28.0884 16.5311 28.0133Z" fill="#8C593F"/>
<path fill-rule="evenodd" clip-rule="evenodd" d="M9.20677 19.8648C9.23446 20.0521 9.59385 20.1596 9.54746 19.8579C9.49991 19.5976 9.16139 19.5386 9.20677 19.8648Z" fill="#8C593F"/>
<path fill-rule="evenodd" clip-rule="evenodd" d="M37.3281 18.8076C37.5133 18.8733 37.7485 18.5837 37.6136 18.4337C37.4904 18.2913 37.2079 18.5912 37.3281 18.8076Z" fill="#8C593F"/>
<path fill-rule="evenodd" clip-rule="evenodd" d="M37.9139 15.6789C38.031 15.6901 38.1708 15.7089 38.1999 15.5843C38.2597 15.2698 37.5935 15.1921 37.9139 15.6789Z" fill="#8C593F"/>
<path fill-rule="evenodd" clip-rule="evenodd" d="M9.17401 16.9437C9.21152 16.8926 9.29797 16.7905 9.2789 16.6848C9.218 16.4577 8.87928 16.6943 8.8953 16.874C8.91315 16.9959 9.05548 16.9652 9.17401 16.9437Z" fill="#8C593F"/>
<path fill-rule="evenodd" clip-rule="evenodd" d="M12.5547 22.73C12.5262 22.8547 12.8034 22.9734 12.9706 22.909L12.9994 22.7762C12.9442 22.6885 13.0132 22.7343 12.9091 22.6819C12.8632 22.6589 12.596 22.5886 12.5547 22.73Z" fill="#8C593F"/>
<path fill-rule="evenodd" clip-rule="evenodd" d="M33.6369 22.0059C33.7877 22.0487 34.0529 21.8892 34.0454 21.7825C34.0157 21.6442 33.7312 21.7143 33.5848 21.8441L33.6369 22.0059Z" fill="#8C593F"/>
<path fill-rule="evenodd" clip-rule="evenodd" d="M14.9357 15.6885C14.9357 15.6885 14.854 15.6758 14.9187 15.8126C14.9619 15.9008 15.146 15.9911 15.3409 15.8353C15.2905 15.6315 15.0674 15.6251 14.9357 15.6885Z" fill="#8C593F"/>
<path fill-rule="evenodd" clip-rule="evenodd" d="M17.1574 21.9359C16.982 21.911 16.6028 21.9929 16.7595 22.1832C16.8261 22.2705 16.9352 22.1999 17.0311 22.1468C17.1402 22.0763 17.1399 22.0844 17.1574 21.9359Z" fill="#8C593F"/>
<path fill-rule="evenodd" clip-rule="evenodd" d="M31.8289 15.1095C32.0566 15.2799 32.2412 15.0832 32.2557 15.0087C32.2741 14.852 32.268 15 32.2471 14.927C32.2135 14.8954 31.8983 14.8522 31.8289 15.1095Z" fill="#8C593F"/>
<path fill-rule="evenodd" clip-rule="evenodd" d="M29.8692 21.6395C29.9508 21.3648 29.7525 21.3409 29.4916 21.3937C29.4971 21.5494 29.5089 21.5407 29.6128 21.5856C29.6937 21.6309 29.7507 21.661 29.8692 21.6395Z" fill="#8C593F"/>
<path fill-rule="evenodd" clip-rule="evenodd" d="M27.2318 28.9134C27.2978 29.0169 27.3445 29.0317 27.4863 29.0005C27.6398 28.9774 27.6658 28.9268 27.6837 28.7701C27.4965 28.7539 27.3314 28.7693 27.2318 28.9134Z" fill="#8C593F"/>
<path fill-rule="evenodd" clip-rule="evenodd" d="M18.805 29.2844C18.7164 29.1487 18.5523 29.1396 18.3627 29.1805C18.3679 29.3444 18.4011 29.3842 18.5418 29.3943C18.6941 29.4126 18.7307 29.3697 18.805 29.2844Z" fill="#8C593F"/>
<path fill-rule="evenodd" clip-rule="evenodd" d="M18.0825 27.9859C17.568 27.9265 18.0166 28.4484 18.2769 28.117C18.2452 28.0282 18.3134 28.0909 18.2106 28.0215C18.1758 28.0062 18.1176 27.9925 18.0825 27.9859Z" fill="#8C593F"/>
<path fill-rule="evenodd" clip-rule="evenodd" d="M37.6458 19.073C37.524 19.4641 37.8111 19.345 37.9472 19.175C37.9385 19.0933 37.9165 19.0611 37.8835 19.0137C37.7433 18.9948 37.7423 19.0193 37.6458 19.073Z" fill="#8C593F"/>
<path fill-rule="evenodd" clip-rule="evenodd" d="M31.7276 23.2811C31.4044 23.1394 31.3474 23.9547 31.6701 23.5379C31.8186 23.3591 31.7272 23.2893 31.7276 23.2811Z" fill="#8C593F"/>
<path fill-rule="evenodd" clip-rule="evenodd" d="M30.0487 23.8399C30.049 23.8317 30.0363 23.8486 30.0245 23.8572C30.0242 23.8654 29.999 23.9078 30.0422 23.9961C30.0971 24.092 30.1433 24.1069 30.2733 24.0843C30.3919 24.0627 30.3567 24.0561 30.3929 24.0377C30.3745 23.9151 30.3521 23.8917 30.2483 23.8468C30.0985 23.7795 30.0848 23.8214 30.0848 23.8214C30.0725 23.8307 30.0603 23.8475 30.0487 23.8399Z" fill="#8C593F"/>
<path fill-rule="evenodd" clip-rule="evenodd" d="M9.16489 20.3264C9.09621 20.2881 9.04975 20.2657 8.93176 20.2872C8.88246 20.347 8.87012 20.3556 8.86606 20.4541C8.95402 20.6062 9.23035 20.7337 9.16489 20.3264Z" fill="#8C593F"/>
<path fill-rule="evenodd" clip-rule="evenodd" d="M14.7282 24.1438C14.7459 24.2826 15.0181 24.5249 15.0176 24.2462C15.0264 24.0323 14.7043 23.8656 14.7282 24.1438Z" fill="#8C593F"/>
<path fill-rule="evenodd" clip-rule="evenodd" d="M27.8573 27.6947C27.9915 27.861 28.2756 27.7996 28.2861 27.5443C28.1344 27.5266 27.9345 27.5272 27.8573 27.6947Z" fill="#8C593F"/>
<path fill-rule="evenodd" clip-rule="evenodd" d="M16.0452 24.6694C16.1939 24.7612 16.3844 24.7121 16.4291 24.4721C16.2926 24.3629 16.0883 24.4703 16.0452 24.6694Z" fill="#8C593F"/>
<path fill-rule="evenodd" clip-rule="evenodd" d="M38.0499 17.5357C37.9986 17.6444 37.9516 17.9258 38.1915 17.8006C38.3232 17.7372 38.3801 17.5049 38.0499 17.5357Z" fill="#8C593F"/>
<path fill-rule="evenodd" clip-rule="evenodd" d="M29.8644 15.4751C30.0231 15.6159 30.3115 15.4635 30.3866 15.3456C30.2715 15.2843 29.9517 15.3397 29.8644 15.4751Z" fill="#8C593F"/>
<path fill-rule="evenodd" clip-rule="evenodd" d="M8.89706 18.8183C8.58017 18.816 8.58248 19.0375 8.72108 19.0972C8.94004 19.2027 8.9281 18.924 8.89706 18.8183Z" fill="#8C593F"/>
<path fill-rule="evenodd" clip-rule="evenodd" d="M16.7585 15.9442C16.8362 16.056 17.1011 16.1834 17.272 16.0281C17.2389 15.972 17.3339 15.9515 17.0292 15.9323C16.912 15.9212 16.8668 15.8819 16.7585 15.9442Z" fill="#8C593F"/>
<path fill-rule="evenodd" clip-rule="evenodd" d="M37.3654 19.61C37.4395 19.5165 37.4767 19.4736 37.4717 19.3179C37.3082 19.2925 37.2596 19.3353 37.1618 19.4217C37.204 19.535 37.2369 19.583 37.3654 19.61Z" fill="#8C593F"/>
<path fill-rule="evenodd" clip-rule="evenodd" d="M9.61004 20.6265C9.54237 20.5637 9.47348 20.5173 9.33079 20.5567C9.28923 20.7063 9.33432 20.762 9.41332 20.8405C9.53255 20.8021 9.56972 20.7592 9.61004 20.6265Z" fill="#8C593F"/>
<path fill-rule="evenodd" clip-rule="evenodd" d="M38.1635 16.4806C38.1939 16.6026 38.1581 16.6123 38.2739 16.6561C38.5164 16.7606 38.5245 16.563 38.4217 16.4937C38.3528 16.4472 38.2466 16.4601 38.1635 16.4806Z" fill="#8C593F"/>
<path fill-rule="evenodd" clip-rule="evenodd" d="M8.53431 17.9734C8.65012 18.0178 8.80528 17.9534 8.83213 17.8701C8.89682 17.7277 8.82418 17.7722 8.82418 17.7722C8.67378 17.7212 8.55355 17.7841 8.53431 17.9734Z" fill="#8C593F"/>
<path fill-rule="evenodd" clip-rule="evenodd" d="M10.1564 20.2172C10.1407 20.0288 9.98838 20.0111 9.81939 20.1337C9.85282 20.1817 9.87426 20.2296 9.95562 20.2511C10.0826 20.3025 10.0836 20.2774 10.1564 20.2172Z" fill="#8C593F"/>
<path fill-rule="evenodd" clip-rule="evenodd" d="M36.9929 18.9693C36.8938 18.8096 36.6908 18.8843 36.663 18.992C36.5945 19.2248 36.9198 19.0383 36.9929 18.9693Z" fill="#8C593F"/>
<path fill-rule="evenodd" clip-rule="evenodd" d="M38.0381 18.3987C38.0919 18.5197 38.034 18.4972 38.1478 18.5911C38.193 18.6298 38.2278 18.6452 38.3095 18.6579C38.3308 18.4184 38.2611 18.4052 38.0381 18.3987Z" fill="#8C593F"/>
<path fill-rule="evenodd" clip-rule="evenodd" d="M8.53291 19.9681C8.69904 19.9282 8.77248 19.8511 8.82674 19.684C8.61379 19.7103 8.53073 19.7302 8.53291 19.9681Z" fill="#8C593F"/>
<path fill-rule="evenodd" clip-rule="evenodd" d="M13.5523 23.6126C13.5567 23.506 13.4851 23.2461 13.3625 23.3667C13.2278 23.5041 13.4348 23.6096 13.5523 23.6126Z" fill="#8C593F"/>
<path fill-rule="evenodd" clip-rule="evenodd" d="M32.9715 22.7577C33.0419 22.7546 33.1135 22.7352 33.1632 22.6673C33.2251 22.5907 33.2234 22.632 33.1941 22.4855C33.018 22.477 32.9894 22.601 32.9715 22.7577Z" fill="#8C593F"/>
<path fill-rule="evenodd" clip-rule="evenodd" d="M28.6549 27.1514C28.659 27.0528 28.6747 26.9614 28.5204 26.9932C28.3425 27.0418 28.4133 27.3179 28.6549 27.1514Z" fill="#8C593F"/>
<path fill-rule="evenodd" clip-rule="evenodd" d="M17.5209 27.6416C17.6581 27.7339 17.8119 27.7027 17.7269 27.4929L17.5508 27.4844C17.5249 27.5425 17.5004 27.5686 17.5209 27.6416Z" fill="#8C593F"/>
<path fill-rule="evenodd" clip-rule="evenodd" d="M30.0312 25.6788C30.0209 25.3592 29.8242 25.5727 29.8122 25.5732C29.7982 25.6233 29.8112 25.5977 29.8092 25.6472C29.8071 25.6968 29.862 25.7933 30.0312 25.6788Z" fill="#8C593F"/>
<path fill-rule="evenodd" clip-rule="evenodd" d="M19.4815 28.2442L19.4655 28.0645C19.3011 28.0636 19.2776 28.0647 19.248 28.2137C19.3625 28.2902 19.3277 28.2754 19.4815 28.2442Z" fill="#8C593F"/>
<path fill-rule="evenodd" clip-rule="evenodd" d="M26.8751 27.8785C26.8577 27.7314 26.8342 27.7325 26.6571 27.7484L26.6497 27.9291C26.802 27.9474 26.7544 27.9658 26.8751 27.8785Z" fill="#8C593F"/>
<path fill-rule="evenodd" clip-rule="evenodd" d="M16.2611 26.2846C16.4215 26.384 16.5183 26.3228 16.4793 26.1191C16.3265 26.1258 16.2796 26.1279 16.2611 26.2846Z" fill="#8C593F"/>
<path fill-rule="evenodd" clip-rule="evenodd" d="M38.5101 18.0408C38.4134 18.1026 38.4019 18.1031 38.3955 18.2593L38.5355 18.2857C38.5754 18.1612 38.553 18.1378 38.5101 18.0408Z" fill="#8C593F"/>
<path fill-rule="evenodd" clip-rule="evenodd" d="M8.47907 19.5769C8.48517 19.4288 8.47351 19.4212 8.39349 19.3671C8.34285 19.4595 8.30601 19.4943 8.34753 19.6234L8.47907 19.5769Z" fill="#8C593F"/>
</g>
</g>
<defs>
<filter id="filter0_d_84_1713" x="0.553711" y="0.762695" width="126.097" height="46.4792" filterUnits="userSpaceOnUse" color-interpolation-filters="sRGB">
<feFlood flood-opacity="0" result="BackgroundImageFix"/>
<feColorMatrix in="SourceAlpha" type="matrix" values="0 0 0 0 0 0 0 0 0 0 0 0 0 0 0 0 0 0 127 0" result="hardAlpha"/>
<feOffset dy="4"/>
<feGaussianBlur stdDeviation="2"/>
<feComposite in2="hardAlpha" operator="out"/>
<feColorMatrix type="matrix" values="0 0 0 0 0 0 0 0 0 0 0 0 0 0 0 0 0 0 0.25 0"/>
<feBlend mode="normal" in2="BackgroundImageFix" result="effect1_dropShadow_84_1713"/>
<feBlend mode="normal" in="SourceGraphic" in2="effect1_dropShadow_84_1713" result="shape"/>
</filter>
<filter id="filter1_i_84_1713" x="7.79004" y="13.2056" width="31.4277" height="20.3454" filterUnits="userSpaceOnUse" color-interpolation-filters="sRGB">
<feFlood flood-opacity="0" result="BackgroundImageFix"/>
<feBlend mode="normal" in="SourceGraphic" in2="BackgroundImageFix" result="shape"/>
<feColorMatrix in="SourceAlpha" type="matrix" values="0 0 0 0 0 0 0 0 0 0 0 0 0 0 0 0 0 0 127 0" result="hardAlpha"/>
<feOffset dy="4.05044"/>
<feGaussianBlur stdDeviation="2.02522"/>
<feComposite in2="hardAlpha" operator="arithmetic" k2="-1" k3="1"/>
<feColorMatrix type="matrix" values="0 0 0 0 0 0 0 0 0 0 0 0 0 0 0 0 0 0 0.25 0"/>
<feBlend mode="normal" in2="shape" result="effect1_innerShadow_84_1713"/>
</filter>
<linearGradient id="paint0_linear_84_1713" x1="78.6022" y1="7.85083" x2="78.6022" y2="32.1534" gradientUnits="userSpaceOnUse">
<stop stop-color="#FF975C"/>
<stop offset="1" stop-color="#845F46"/>
</linearGradient>
</defs>
</svg>
