<svg width="89" height="33" viewBox="0 0 89 33" fill="none" xmlns="http://www.w3.org/2000/svg">
<g filter="url(#filter0_d_84_1191)">
<path d="M25.6477 5.51973H78.8513C82.5504 5.51973 85.5492 8.51845 85.5492 12.2175V14.994C85.5492 18.6931 82.5504 21.6918 78.8513 21.6918H25.6477V5.51973Z" fill="url(#paint0_linear_84_1191)" stroke="white" stroke-width="0.486729"/>
<path d="M37.449 11.6109V13.8752H39.9173V14.604H37.449V16.9362H40.2088V17.665H36.5647V10.8821H40.2088V11.6109H37.449ZM44.9966 14.2833L47.0762 17.665H46.0753L44.4524 15.0218L42.9073 17.665H41.9258L43.9957 14.2833L41.9161 10.8918H42.9073L44.5399 13.5448L46.0947 10.8918H47.0859L44.9966 14.2833ZM53.4713 12.8742C53.4713 13.4379 53.277 13.9075 52.8883 14.2833C52.506 14.6526 51.9197 14.8372 51.1294 14.8372H49.8272V17.665H48.9429V10.8918H51.1294C51.8938 10.8918 52.4736 11.0765 52.8688 11.4457C53.2705 11.815 53.4713 12.2912 53.4713 12.8742ZM51.1294 14.1084C51.6217 14.1084 51.9845 14.0015 52.2177 13.7877C52.451 13.5739 52.5676 13.2694 52.5676 12.8742C52.5676 12.0385 52.0882 11.6207 51.1294 11.6207H49.8272V14.1084H51.1294ZM58.817 17.665L57.2039 14.8955H56.1349V17.665H55.2506V10.8918H57.4371C57.9489 10.8918 58.3797 10.9793 58.7296 11.1542C59.0859 11.3291 59.3515 11.5656 59.5264 11.8636C59.7013 12.1616 59.7888 12.5017 59.7888 12.884C59.7888 13.3504 59.6527 13.7618 59.3806 14.1181C59.115 14.4744 58.7134 14.7109 58.1756 14.8275L59.8762 17.665H58.817ZM56.1349 14.1861H57.4371C57.9165 14.1861 58.2761 14.0695 58.5158 13.8363C58.7555 13.5966 58.8753 13.2791 58.8753 12.884C58.8753 12.4823 58.7555 12.1713 58.5158 11.9511C58.2825 11.7308 57.923 11.6207 57.4371 11.6207H56.1349V14.1861ZM62.7274 11.6109V13.8752H65.1957V14.604H62.7274V16.9362H65.4872V17.665H61.8431V10.8821H65.4872V11.6109H62.7274ZM69.6531 17.7331C69.2061 17.7331 68.8044 17.6553 68.4481 17.4998C68.0983 17.3379 67.8229 17.1176 67.6221 16.839C67.4213 16.554 67.3176 16.2268 67.3111 15.8576H68.2538C68.2861 16.175 68.4157 16.4439 68.6425 16.6641C68.8757 16.8779 69.2126 16.9848 69.6531 16.9848C70.0742 16.9848 70.4046 16.8811 70.6443 16.6738C70.8905 16.4601 71.0136 16.188 71.0136 15.8576C71.0136 15.5984 70.9423 15.3879 70.7998 15.2259C70.6573 15.0639 70.4791 14.9409 70.2653 14.8566C70.0515 14.7724 69.7632 14.6817 69.4004 14.5845C68.9534 14.4679 68.5939 14.3513 68.3218 14.2347C68.0562 14.1181 67.8262 13.9367 67.6318 13.6905C67.444 13.4379 67.35 13.101 67.35 12.6799C67.35 12.3106 67.444 11.9835 67.6318 11.6984C67.8197 11.4134 68.0821 11.1931 68.419 11.0376C68.7623 10.8821 69.1543 10.8044 69.5948 10.8044C70.2297 10.8044 70.748 10.9631 71.1496 11.2805C71.5578 11.598 71.7877 12.0191 71.8396 12.5438H70.8678C70.8354 12.2847 70.6994 12.058 70.4597 11.8636C70.22 11.6628 69.9025 11.5624 69.5073 11.5624C69.1381 11.5624 68.8368 11.6595 68.6036 11.8539C68.3704 12.0418 68.2538 12.3074 68.2538 12.6507C68.2538 12.8969 68.3218 13.0977 68.4578 13.2532C68.6004 13.4087 68.772 13.5286 68.9729 13.6128C69.1802 13.6905 69.4685 13.7812 69.8377 13.8849C70.2847 14.008 70.6443 14.1311 70.9164 14.2541C71.1885 14.3708 71.4217 14.5554 71.6161 14.8081C71.8104 15.0542 71.9076 15.3911 71.9076 15.8187C71.9076 16.1491 71.8201 16.4601 71.6452 16.7516C71.4703 17.0431 71.2112 17.2796 70.8678 17.461C70.5244 17.6424 70.1195 17.7331 69.6531 17.7331ZM76.0368 17.7331C75.5897 17.7331 75.1881 17.6553 74.8318 17.4998C74.4819 17.3379 74.2066 17.1176 74.0058 16.839C73.8049 16.554 73.7013 16.2268 73.6948 15.8576H74.6374C74.6698 16.175 74.7994 16.4439 75.0261 16.6641C75.2593 16.8779 75.5962 16.9848 76.0368 16.9848C76.4579 16.9848 76.7883 16.8811 77.028 16.6738C77.2741 16.4601 77.3972 16.188 77.3972 15.8576C77.3972 15.5984 77.326 15.3879 77.1834 15.2259C77.0409 15.0639 76.8628 14.9409 76.649 14.8566C76.4352 14.7724 76.1469 14.6817 75.7841 14.5845C75.3371 14.4679 74.9775 14.3513 74.7054 14.2347C74.4398 14.1181 74.2098 13.9367 74.0155 13.6905C73.8276 13.4379 73.7337 13.101 73.7337 12.6799C73.7337 12.3106 73.8276 11.9835 74.0155 11.6984C74.2034 11.4134 74.4657 11.1931 74.8026 11.0376C75.146 10.8821 75.5379 10.8044 75.9784 10.8044C76.6133 10.8044 77.1316 10.9631 77.5333 11.2805C77.9414 11.598 78.1714 12.0191 78.2232 12.5438H77.2515C77.2191 12.2847 77.083 12.058 76.8433 11.8636C76.6036 11.6628 76.2862 11.5624 75.891 11.5624C75.5217 11.5624 75.2205 11.6595 74.9872 11.8539C74.754 12.0418 74.6374 12.3074 74.6374 12.6507C74.6374 12.8969 74.7054 13.0977 74.8415 13.2532C74.984 13.4087 75.1557 13.5286 75.3565 13.6128C75.5638 13.6905 75.8521 13.7812 76.2214 13.8849C76.6684 14.008 77.028 14.1311 77.3 14.2541C77.5721 14.3708 77.8054 14.5554 77.9997 14.8081C78.1941 15.0542 78.2912 15.3911 78.2912 15.8187C78.2912 16.1491 78.2038 16.4601 78.0289 16.7516C77.854 17.0431 77.5948 17.2796 77.2515 17.461C76.9081 17.6424 76.5032 17.7331 76.0368 17.7331Z" fill="white"/>
<circle cx="16.2908" cy="13.9614" r="12.6676" fill="white" stroke="#9F7356" stroke-width="1.04118"/>
<g filter="url(#filter1_i_84_1191)">
<path fill-rule="evenodd" clip-rule="evenodd" d="M19.9692 13.5905C19.884 13.1216 19.5441 12.9623 19.3238 12.6454C19.0806 12.2959 18.7312 12.1765 18.2898 12.1337C17.985 12.1021 18.0933 12.0187 17.9517 11.9404C17.8177 11.8673 17.6597 11.9872 17.5003 11.9491C17.3727 11.9208 17.297 11.8005 17.1787 11.7439C17.0366 11.6772 16.8812 11.7347 16.7393 11.6619C16.6209 11.5997 16.5363 11.5078 16.5607 11.3041C16.5789 11.0612 16.6722 11.1361 16.5958 10.8411C16.5479 10.635 16.6719 10.5622 16.7652 10.4456C16.8509 10.3238 16.8792 10.2156 16.9417 10.0665C17.0222 9.87154 17.2868 9.51132 17.2872 9.30312C17.1588 9.29201 17.1121 9.44602 17.0662 9.58284C16.9917 9.82262 16.6337 10.502 16.5005 10.6092C16.4211 10.5788 16.1633 10.3935 16.1633 10.3935L15.807 10.6397C15.6976 10.56 15.529 10.157 15.4543 10.0139C15.3504 9.79915 15.3179 9.41771 15.134 9.38672C15.1009 9.60194 15.3601 9.96184 15.4238 10.1728C15.4738 10.3281 15.5093 10.4446 15.594 10.5366C15.7014 10.6671 15.7482 10.6985 15.6749 10.9211C15.5739 11.2239 15.8752 11.5313 15.4479 11.7355C15.3 11.8094 15.1653 11.7536 15.0002 11.8565C14.8842 11.9346 14.8151 12.0446 14.677 12.0789C14.5062 12.1204 14.3501 12.0032 14.2079 12.1279C14.0575 12.2637 14.1454 12.277 13.8533 12.335C13.5369 12.3939 13.2921 12.4721 13.0667 12.6623C12.9413 12.7691 12.8827 12.8224 12.7885 12.9617C12.669 13.1245 12.6613 13.1137 12.5113 13.2383C12.3942 13.3448 12.1291 13.7166 12.0798 13.9437C11.904 13.9064 11.8422 13.8473 11.6594 13.9789C11.5595 14.0563 11.5138 14.188 11.4134 14.2881C11.2043 14.4772 10.7992 14.3434 10.6037 14.5937C10.4672 14.7796 10.6921 14.5954 10.3184 14.8763C10.1772 14.9782 10.1124 14.9922 9.97185 15.0774C9.17036 15.5741 9.77726 16.2844 10.318 15.6644C10.4363 15.5296 10.4457 15.5012 10.6579 15.4245C10.7973 15.3677 10.9114 15.3348 11.0586 15.2776C11.3695 15.1627 11.5461 15.1716 11.729 14.8373C11.7993 14.699 11.9318 14.6091 11.9756 14.5226C12.0554 14.3448 11.9152 14.2325 12.0899 14.0956C12.2003 14.1526 12.1009 14.2187 12.3431 14.2025C12.626 14.1789 12.8366 13.9503 13.0447 13.7836C13.3198 13.5577 13.752 13.4262 13.9468 13.1923C14.3709 12.6671 14.6354 12.5091 15.2652 12.2732C15.5192 12.1719 15.5021 11.9984 15.7048 11.9611C15.7505 12.0209 15.7656 12.0542 15.7702 12.1325C15.3588 12.5387 15.606 12.6012 15.49 12.8707C15.4638 12.9169 15.3444 13.0797 15.2922 13.1777C15.0918 13.5467 15.1082 13.9285 14.9473 14.3184C14.8218 14.6278 14.9007 14.8605 14.8146 15.1909C14.7192 15.5496 14.6751 15.6417 14.7396 16.0325C14.8967 16.9146 14.5505 16.716 14.7269 17.7097C14.7983 18.123 14.6924 18.1559 14.6365 18.5353C14.613 18.7162 14.6228 18.8677 14.7507 18.8904C14.8305 18.9092 14.8795 18.8903 14.9506 18.9211C15.0062 18.941 15.0289 18.9795 15.0932 18.9766C15.3113 18.9559 15.3081 18.4551 15.2938 18.2136C15.282 17.9102 15.3198 17.5823 15.2997 17.2905C15.2796 16.9986 15.441 16.5979 15.2533 16.4598C15.0112 16.2734 15.3572 15.6954 15.3608 14.829C15.3586 14.1033 15.3149 14.1842 15.4571 13.4688C15.4963 13.2984 15.4768 13.1924 15.6083 13.1247C15.7246 13.4291 15.576 15.478 15.5569 15.9403C15.5446 16.2392 15.4715 18.4028 15.8347 18.3868C16.2057 18.3705 16.3126 16.1659 16.3254 15.8558C16.3355 15.4107 16.3718 13.3611 16.4959 13.0857C16.6304 13.1472 16.6009 13.2725 16.6185 13.4348C16.7059 14.05 16.6693 14.1585 16.6027 14.7971C16.5577 15.3 16.6574 15.6163 16.6788 16.0768C16.7146 16.5761 16.4583 16.1539 16.4709 16.8174C16.4764 17.273 16.3389 18.4548 16.37 18.6787C16.4109 19.0538 16.6284 18.8588 16.7101 18.8325C16.947 18.7546 17.0485 18.8287 17.0258 18.4022C16.9945 17.9928 16.8964 18.0254 17.0112 17.5869C17.0697 17.3366 17.1492 16.973 17.0789 16.7232C16.9876 16.401 17.0592 16.2232 17.1286 15.905C17.2257 15.5067 17.1892 15.413 17.1228 15.067C17.0633 14.7545 17.1699 14.5133 17.0537 14.2089C16.8783 13.772 17.0003 13.3562 16.7117 12.9298C16.6814 12.8861 16.6424 12.8543 16.6284 12.8043C16.5883 12.609 16.7457 12.3042 16.3994 12.1112L16.4955 11.9267C16.7113 11.9623 16.6565 12.1222 16.935 12.2057C17.6036 12.3956 17.7747 12.54 18.1739 13.0178C18.2737 13.1315 18.4157 13.2098 18.5898 13.2807C19.0573 13.4683 19.3376 13.8947 19.7087 13.8783C19.9185 13.8691 19.84 13.8163 19.9477 13.7498C20.1118 13.8717 19.9522 14.0307 20.0343 14.1846C20.0944 14.2945 20.1741 14.3077 20.2559 14.4788C20.3969 14.7709 20.6221 14.7777 20.9089 14.8497C21.2433 14.9418 21.4123 14.9456 21.6039 15.1792C21.7652 15.3691 22.1228 15.4882 22.3126 15.1763C22.468 14.9218 22.1024 14.6061 21.9761 14.5443C21.9211 14.5128 21.8494 14.4936 21.7861 14.4625C21.731 14.431 21.6847 14.388 21.6372 14.3622C21.3395 14.1559 21.5202 14.266 21.3818 14.109C21.19 13.8809 20.796 14.0558 20.6025 13.8677C20.5022 13.7652 20.4825 13.6536 20.3724 13.5907C20.1832 13.4798 20.148 13.5543 19.9692 13.5905Z" fill="#8C593F"/>
<path fill-rule="evenodd" clip-rule="evenodd" d="M17.8724 15.4274C17.6735 14.9803 17.7983 15.2676 17.5925 14.9895C17.3864 14.7174 17.5626 14.5461 17.3634 14.4875C17.2524 14.6443 17.4151 14.8003 17.441 14.9511C17.4737 15.1355 17.3217 15.8904 17.2568 16.0958C17.1528 16.4717 17.2627 16.3432 17.3339 16.5706C17.3903 16.7707 17.3243 17.0042 17.2995 17.2079C17.2678 17.5861 17.3881 17.204 17.1824 17.7024C17.0031 18.149 17.3917 18.2954 17.1163 18.7179C17.0302 18.8513 16.9112 19.0025 16.9995 19.2068C17.0291 19.2673 17.0908 19.338 17.1801 19.3169C17.2855 19.2955 17.2812 19.2112 17.3638 19.1625C17.5955 19.0115 17.5217 19.2345 17.7306 18.8596C17.8526 18.6348 17.9412 18.6309 17.9964 18.471C18.0423 18.3337 18.0246 17.3949 17.9903 17.2504C17.936 16.9996 17.7924 16.3813 18.0792 16.2618C18.2122 16.3573 18.1796 16.9494 18.1781 17.1859C18.1801 17.7259 18.101 17.6903 18.3696 18.0103C18.6535 18.3523 18.3083 18.5195 18.4487 18.8283C18.501 18.9273 18.632 19.0735 18.7666 18.9324C18.8254 18.8736 18.8032 18.8239 18.8627 18.7483C18.8971 18.6906 18.9458 18.6884 18.9807 18.6195L18.7793 17.8351C18.7277 17.7193 18.4701 17.331 18.4926 17.1725C18.5169 16.9744 18.6522 17.205 18.6796 17.3274C18.7327 17.6062 18.8297 17.3993 18.8869 17.5715C18.9229 17.6768 18.8655 18.0901 19.089 18.3391L19.1899 18.0364C19.3083 17.6993 19.0699 17.4338 18.8732 16.9248C18.8145 16.781 18.7803 16.8332 18.7452 16.7055C18.7177 16.5943 18.7302 16.4812 18.6859 16.3875C18.6494 16.2934 18.5853 16.2906 18.4991 16.227C18.3819 16.1364 18.4223 16.1347 18.3555 15.9968C18.3035 15.8922 18.2376 15.923 18.1434 15.871C18.0891 15.8398 17.9016 15.5051 17.8724 15.4274Z" fill="#8C593F"/>
<path fill-rule="evenodd" clip-rule="evenodd" d="M13.7392 16.454C14.0441 16.4856 13.8277 17.2434 13.7633 17.4376C13.7171 17.5804 13.6216 18.5299 13.6564 18.6631C13.6844 18.7632 13.7312 18.8062 13.7853 18.8601C13.8475 18.9191 13.8617 18.9636 13.8988 19.0409C14.0621 19.3827 14.0303 19.1759 14.2424 19.3014C14.2424 19.3014 14.4628 19.6235 14.6051 19.2966C14.694 19.0956 14.595 18.9536 14.5197 18.8333C14.2708 18.4223 14.6876 18.2744 14.53 17.8031C14.3502 17.2822 14.4789 17.6761 14.4545 17.2888C14.3948 16.1998 14.7155 16.8158 14.5889 16.1745C14.5492 15.9681 14.4498 15.2466 14.5058 15.0643C14.5523 14.9158 14.72 14.7509 14.6213 14.6089C14.4904 14.6597 14.5195 14.7314 14.4813 14.8795C14.4522 14.9988 14.4087 15.0741 14.3414 15.1501C14.0876 15.448 14.2523 15.1651 14.0243 15.6143C13.98 15.712 13.7815 16.0358 13.7075 16.0729C13.5675 16.1465 13.5542 16.0797 13.4831 16.2459C13.4295 16.3775 13.4206 16.395 13.3209 16.4668C12.9808 16.7123 13.1755 16.6702 13.0424 16.9744C12.9974 17.0889 12.9579 17.0683 12.8873 17.2233C12.8517 17.3094 12.8076 17.4011 12.7721 17.4817C12.5713 17.8618 12.4105 18.0491 12.5027 18.3486L12.5499 18.5714C12.5707 18.6551 12.549 18.5938 12.5797 18.6264C12.8163 18.3571 12.8025 17.913 12.8466 17.8214C12.9344 17.6488 12.9811 17.8828 13.0839 17.5353C13.1219 17.3929 13.2817 17.2283 13.2736 17.4257C13.2575 17.6178 12.9855 17.9672 12.9064 18.1282L12.6564 18.9213C12.899 19.0965 12.7438 19.148 12.8698 19.2158C13.0114 19.2941 13.1304 19.1425 13.183 19.0445C13.3409 18.7281 13 18.6023 13.3375 18.2217C13.617 17.8888 13.5369 17.8755 13.5821 17.367C13.6067 17.1239 13.6046 16.5951 13.7392 16.454Z" fill="#8C593F"/>
<path fill-rule="evenodd" clip-rule="evenodd" d="M11.5805 13.1387C11.6183 13.0018 11.5795 12.9645 11.5102 12.8885C11.0786 12.4182 10.5761 13.2786 10.4923 13.3553C10.3161 13.5262 9.36454 13.9505 9.18675 14.161C9.07692 14.2894 9.06879 14.4868 8.94111 14.65C8.66886 15.0053 8.82616 14.9027 8.82404 15.1445C8.82622 15.2907 8.71974 15.3289 8.76302 15.4566C8.79146 15.5455 8.89541 15.5689 8.98451 15.5538C9.42164 15.5006 9.33559 15.043 9.73049 14.8457C9.87839 14.7718 10.0556 14.7752 10.2371 14.6659C10.3854 14.5804 10.4966 14.4295 10.5984 14.2954C11.0426 13.6912 11.3862 13.7495 11.5805 13.1387Z" fill="#8C593F"/>
<path fill-rule="evenodd" clip-rule="evenodd" d="M21.1107 13.4508C21.3368 13.6267 21.4984 14.0076 21.7265 14.1439C22.1036 14.3694 22.3085 14.09 22.5441 14.6256C22.7136 15.0062 23.0607 14.9909 23.1546 14.8576C23.2403 14.7358 23.1534 14.6889 23.1417 14.5826C23.1041 14.3254 23.3204 14.3498 23.0827 14.0563C22.9448 13.8881 22.9753 13.7292 22.8766 13.5872C22.7323 13.3742 21.7806 13.022 21.6172 12.8829C21.454 12.7381 21.3204 12.2658 20.8665 12.3364C20.7207 12.3596 20.52 12.5375 20.5296 12.6946C20.5394 12.8462 20.6674 13.0655 20.7362 13.1526C20.8819 13.3316 20.9312 13.3123 21.1107 13.4508Z" fill="#8C593F"/>
<path fill-rule="evenodd" clip-rule="evenodd" d="M13.5395 14.6562C13.7051 15.1327 13.1312 15.9683 13.4946 15.9467C13.7856 15.9228 14.1524 14.8318 14.3046 14.662C14.6253 14.3105 14.5153 14.4334 14.7173 13.8334C14.8645 13.3882 15.2735 13.038 15.2868 12.7168C14.9229 12.7495 14.7133 13.1528 14.592 13.3607C14.5143 13.4878 14.4734 13.5012 14.3972 13.5942C14.2618 13.7522 14.2049 13.9573 13.9835 14.0571C13.5809 14.2491 13.4639 14.5526 13.3054 14.6836C13.1885 14.7845 13.1181 14.7369 13.0028 14.7982C12.879 14.8655 12.6915 15.1214 12.5978 15.2492C12.4531 15.4354 12.3589 15.5748 12.2227 15.7551C12.1207 15.8832 11.8799 16.0629 11.9024 16.298C11.9464 16.3974 12.0653 16.4484 12.0526 16.5558C12.0388 16.6916 11.8843 16.7375 11.9742 16.8911C12.2123 16.9763 12.4719 16.1489 12.635 15.9056C12.7294 15.7607 12.9133 15.6006 12.969 15.4183C13.0143 15.2983 13.0187 15.1912 13.1179 15.1306C13.2421 15.0521 13.2866 15.1399 13.3965 15.0114C13.4233 14.9484 13.4181 14.8753 13.4298 14.7906C13.4502 14.6769 13.4582 14.6821 13.5395 14.6562Z" fill="#8C593F"/>
<path fill-rule="evenodd" clip-rule="evenodd" d="M17.4811 13.2051C17.3699 12.9679 17.1898 12.6552 16.8519 12.6477C16.8355 12.8454 16.9956 13.0633 17.0942 13.2165C17.4572 13.7856 17.3266 14.0279 17.5152 14.3346C17.6207 14.5099 17.7043 14.4388 17.8263 14.7935C17.8905 14.9933 18.1728 15.763 18.3999 15.7247C18.7321 15.6706 18.2403 14.9045 18.4446 14.4397C18.5403 14.4638 18.5401 14.4694 18.5428 14.5929C18.5658 15.0139 18.6575 14.7454 18.8446 14.8891C18.9228 14.9475 18.9261 15.0598 18.9618 15.1711C19.0186 15.36 19.1669 15.466 19.2651 15.6304C19.3857 15.8277 19.5855 16.6516 19.8314 16.5451C19.9264 16.3889 19.7911 16.3554 19.7804 16.2155C19.7766 16.1088 19.9006 16.0359 19.9525 15.9435C19.9945 15.7051 19.7599 15.5356 19.6681 15.416C19.5232 15.2198 19.1311 14.5786 18.9477 14.5248C18.7967 14.4752 18.7696 14.5438 18.6539 14.4253C18.4602 14.2424 18.4753 14.0674 18.0164 13.8683C17.8505 13.791 17.7713 13.564 17.6637 13.4391C17.596 13.352 17.5486 13.3261 17.4811 13.2051Z" fill="#8C593F"/>
<path fill-rule="evenodd" clip-rule="evenodd" d="M11.5763 18.727C11.6767 18.8295 11.6811 18.7224 11.7048 18.9351C11.726 19.1986 11.966 19.0473 12.0724 18.8121C12.2233 18.4736 11.9148 18.5323 12.4038 17.9986C12.4715 17.9227 12.4586 17.8387 12.5116 17.7295C12.5636 17.6371 12.5975 17.6021 12.6263 17.4823C12.6937 17.215 12.7436 17.1733 12.8419 16.944C12.9306 16.7487 12.9463 16.557 13.0185 16.3735C13.1353 16.0756 13.224 16.2687 13.2414 15.846C13.2427 15.6154 13.3263 15.3529 13.3005 15.1905C13.0803 15.2621 12.9954 15.7556 12.7987 16.0342C12.6099 16.3125 12.4651 16.5103 12.2901 16.8443C12.1152 17.1838 11.9943 17.3805 11.8048 17.676C11.4951 18.1623 11.6355 18.0715 11.605 18.4219C11.5925 18.5353 11.5738 18.5979 11.5763 18.727Z" fill="#8C593F"/>
<path fill-rule="evenodd" clip-rule="evenodd" d="M19.302 16.1134C19.2191 15.9763 19.1508 15.878 19.0673 15.7469C18.9765 15.6045 18.8997 15.3211 18.7958 15.1059C18.7222 14.9349 18.705 14.9636 18.6411 14.9552C18.6015 15.1368 18.6634 15.3929 18.6454 15.6302C18.6291 16.025 18.7497 15.8338 18.8341 16.134C18.8978 16.345 18.8834 16.5031 18.9714 16.7075C19.1177 17.0612 19.0547 16.833 19.1355 17.2179C19.163 17.3292 19.2016 17.3725 19.238 17.4666C19.296 17.6272 19.2242 17.6025 19.3323 17.7157C19.7183 18.1151 19.4723 18.2217 19.5819 18.498C19.655 18.6807 19.8804 18.8729 19.9341 18.5499C19.9739 18.3623 19.9947 18.4459 20.0792 18.3521C20.1011 18.2103 20.0794 18.1495 20.0769 18.0204C20.0813 17.9133 20.1093 17.8219 20.105 17.7264C20.0966 17.5409 19.8011 17.0929 19.7032 16.9225C19.6056 16.7637 19.4533 16.354 19.302 16.1134Z" fill="#8C593F"/>
<path fill-rule="evenodd" clip-rule="evenodd" d="M18.1406 11.6577C18.2083 11.9698 18.6458 11.8999 18.9626 11.8409C19.3035 11.7752 19.6568 11.7991 19.9735 11.7346C20.2901 11.67 20.548 11.4728 20.8545 11.4653C21.0962 11.4602 21.6653 11.5309 21.7017 11.2254C21.6313 11.1778 21.5979 11.2076 21.5351 11.1653C21.4718 11.1342 21.4814 11.1003 21.4272 11.0464C21.2753 11.0192 21.1453 11.0477 20.9858 11.0152C20.5865 10.937 20.2164 11.122 19.7602 11.249C18.8475 11.5085 18.9813 11.1876 18.1406 11.6577Z" fill="#8C593F"/>
<path fill-rule="evenodd" clip-rule="evenodd" d="M10.5358 11.7167C10.5391 12.026 11.173 11.8912 11.3907 11.8816C11.6809 11.8689 11.9237 12.038 12.2283 12.0753C12.4769 12.1038 12.7614 12.0407 13.2584 12.0918C13.5633 12.1234 13.9887 12.1553 14.0743 11.8365C13.8691 11.7331 13.6324 11.6139 13.35 11.6263C12.2366 11.6753 11.891 11.2741 11.2555 11.4485C11.1007 11.4892 10.9809 11.4717 10.8261 11.5124C10.7589 11.5772 10.782 11.6045 10.716 11.6469C10.6334 11.6952 10.6189 11.6568 10.5358 11.7167Z" fill="#8C593F"/>
<path fill-rule="evenodd" clip-rule="evenodd" d="M9.31451 12.6422C9.39194 12.5207 9.33388 12.3714 9.24742 12.3133C9.01262 12.1494 8.6603 12.4911 8.61898 12.5153C8.30647 12.6698 7.75933 12.6656 7.5754 12.8256C7.47481 12.9202 7.46371 12.9993 7.35559 13.0774C7.14795 13.2329 7.25616 13.1436 7.1904 13.3714C7.17131 13.4452 7.00346 13.6046 7.16986 13.6706C7.44691 13.7877 7.56602 13.4339 7.77771 13.3795C7.91614 13.3451 8.05163 13.373 8.18159 13.3449C8.42544 13.2891 8.54629 13.0924 8.75136 12.9992C8.8587 12.9494 9.16817 12.8684 9.31451 12.6422Z" fill="#8C593F"/>
<path fill-rule="evenodd" clip-rule="evenodd" d="M24.553 12.798C24.6221 12.8795 24.7159 12.9484 24.8788 12.9017C25.0822 12.8477 24.9674 12.7064 24.9375 12.6459C24.8558 12.4808 25.0096 12.4629 24.8134 12.3307C24.6725 12.2356 24.7207 12.2335 24.6129 12.1146C24.436 11.9142 23.9174 11.9877 23.5923 11.8668C23.5129 11.8364 23.227 11.5455 22.9797 11.6856C22.897 11.7343 22.795 11.8624 22.8381 11.9957C22.8947 12.1902 23.1722 12.2849 23.3394 12.3338C23.562 12.4029 23.6435 12.5736 23.8746 12.6365C24.2098 12.729 24.2755 12.5008 24.553 12.798Z" fill="#8C593F"/>
<path fill-rule="evenodd" clip-rule="evenodd" d="M8.84611 12.0883C8.88836 12.0414 8.90909 11.928 8.87171 11.8567C8.79742 11.7024 8.47846 11.8234 8.28495 11.8263C8.02711 11.8321 8.10497 11.8904 7.94851 11.9819C7.82454 12.0547 7.66082 11.9327 7.57539 12.049C7.48187 12.1711 7.57944 12.1501 7.67883 12.2749C7.77845 12.3942 8.06083 12.3817 8.12669 12.3509C8.22519 12.3071 8.34947 12.2175 8.44774 12.1793C8.57864 12.1284 8.76983 12.1818 8.84611 12.0883Z" fill="#8C593F"/>
<path fill-rule="evenodd" clip-rule="evenodd" d="M24.4242 11.6003C24.5631 11.5547 24.4821 11.5639 24.5577 11.4876C24.6498 11.399 24.6713 11.4658 24.668 11.3475C24.6591 11.1736 24.412 11.3081 24.3085 11.2732C24.1814 11.2337 24.2101 11.1256 24.0003 11.1348C23.7987 11.1437 23.2154 11.0286 23.3447 11.4058C23.3954 11.5443 23.5837 11.4682 23.7196 11.4962C24.0232 11.5562 23.9508 11.7564 24.4242 11.6003Z" fill="#8C593F"/>
<path fill-rule="evenodd" clip-rule="evenodd" d="M15.2405 11.4927C15.086 11.3363 14.301 11.0331 14.0544 10.9654C13.7121 10.8736 12.8773 10.8034 12.4736 10.8323C12.5588 10.9132 14.3554 11.2895 14.5306 11.3325C14.7454 11.3852 15.0238 11.4687 15.2405 11.4927Z" fill="#8C593F"/>
<path fill-rule="evenodd" clip-rule="evenodd" d="M11.59 12.1487C11.5337 12.1456 11.0788 12.042 11.1376 12.3824C11.1784 12.5605 11.3434 12.4691 11.5033 12.4955C11.7914 12.5335 11.7579 12.7655 12.2153 12.6106C12.297 12.5846 12.3065 12.5447 12.357 12.4974C12.4243 12.4327 12.4224 12.4778 12.4828 12.3794C12.4352 12.1678 12.3169 12.3022 12.1486 12.2817C11.996 12.2716 12.0335 12.1404 11.8482 12.1429C11.7594 12.1413 11.6779 12.1616 11.59 12.1487Z" fill="#8C593F"/>
<path fill-rule="evenodd" clip-rule="evenodd" d="M19.6947 12.0613C19.7475 12.1492 19.7491 12.1096 19.8184 12.1855C19.8877 12.261 19.8399 12.252 19.9596 12.275C20.4469 12.3716 20.3513 12.1453 20.6921 12.0852C20.8542 12.0558 20.9973 12.1057 21.0442 11.9461C21.1399 11.5818 20.6416 11.7501 20.5849 11.7581C20.5039 11.7673 20.4318 11.7593 20.359 11.7681C20.1651 11.7822 20.1918 11.9218 20.0219 11.9405C19.852 11.9587 19.7596 11.8559 19.6947 12.0613Z" fill="#8C593F"/>
<path fill-rule="evenodd" clip-rule="evenodd" d="M16.9989 11.4152C17.2016 11.3783 17.5043 11.2637 17.7086 11.1981L19.8307 10.5085C19.1217 10.5173 18.2435 10.7191 17.6014 11.0624C17.4118 11.1609 17.1248 11.286 16.9989 11.4152Z" fill="#8C593F"/>
<path fill-rule="evenodd" clip-rule="evenodd" d="M20.9827 15.7691C21.0289 15.8177 21.3843 16.1901 21.5356 16.0319C21.704 15.8502 20.9933 15.1217 20.7336 15.1726C20.7145 15.4379 20.8753 15.639 20.9827 15.7691Z" fill="#8C593F"/>
<path fill-rule="evenodd" clip-rule="evenodd" d="M11.1817 15.5935C10.9332 15.5649 10.1515 16.3591 10.3059 16.5266C10.4447 16.6724 10.8318 16.2669 10.8825 16.214C11.0008 16.0796 11.1871 15.8521 11.1817 15.5935Z" fill="#8C593F"/>
<path fill-rule="evenodd" clip-rule="evenodd" d="M9.03307 11.085C8.90148 11.1526 8.89231 11.1757 8.74097 11.1429C8.62919 11.1195 8.16394 11.2752 8.12028 11.356C8.04308 11.4719 8.12637 11.5979 8.23956 11.5873C8.34474 11.5715 8.39592 11.5074 8.57297 11.5052C8.71809 11.4988 8.81264 11.5509 8.92098 11.4676C9.01218 11.4017 9.25327 11.2224 9.18583 11.1014C9.13988 11.0296 9.09047 11.0601 9.03307 11.085Z" fill="#8C593F"/>
<path fill-rule="evenodd" clip-rule="evenodd" d="M23.1335 10.4753C23.0577 10.5576 23.0905 10.539 23.1281 10.6052C23.3212 11.0019 23.6026 10.8148 23.8271 10.8388C23.9311 10.851 24.0401 10.9419 24.1247 10.8481C24.3688 10.5953 23.895 10.5599 23.7761 10.5089C23.5624 10.4226 23.623 10.51 23.4457 10.5178C23.2923 10.525 23.243 10.3636 23.1335 10.4753Z" fill="#8C593F"/>
<path fill-rule="evenodd" clip-rule="evenodd" d="M7.98241 11.1596C7.99826 11.1645 7.96332 11.2335 8.13599 11.1473C8.24281 11.0919 8.43724 11.0666 8.64986 10.9895C8.85401 10.9187 8.84174 11.0261 8.99983 10.8951C9.10805 10.8058 9.20467 10.8075 9.27333 10.7088C9.21802 10.6829 8.63554 10.748 8.49042 10.7544C8.37747 10.7594 8.16765 10.7686 8.06938 10.8068C7.96302 10.851 7.92189 11.061 7.98241 11.1596Z" fill="#8C593F"/>
<path fill-rule="evenodd" clip-rule="evenodd" d="M23.0533 10.085C23.1205 10.2112 23.2027 10.1741 23.3195 10.2647C23.4595 10.3822 23.4637 10.2807 23.6551 10.3289L24.1581 10.436C24.1661 10.4412 24.2134 10.4618 24.2214 10.4671C24.3256 10.4737 24.2694 10.4705 24.3109 10.4408C24.3794 10.3477 24.3554 10.1405 24.2769 10.0989C24.1506 10.0371 23.5922 10.1067 23.4233 10.1026C23.3026 10.0963 23.1758 10.0457 23.0533 10.085Z" fill="#8C593F"/>
<path fill-rule="evenodd" clip-rule="evenodd" d="M22.625 12.2766C22.1232 11.9497 21.6312 12.1572 21.8393 12.3902C22.0393 12.6175 22.6055 12.7501 22.625 12.2766Z" fill="#8C593F"/>
<path fill-rule="evenodd" clip-rule="evenodd" d="M9.51557 12.8471C9.58759 13.4462 10.2183 12.9905 10.3028 12.897C10.4969 12.6803 10.1778 12.6042 9.99112 12.6407C9.8451 12.6691 9.63885 12.7911 9.51557 12.8471Z" fill="#8C593F"/>
<path fill-rule="evenodd" clip-rule="evenodd" d="M15.3664 18.9764C15.6218 19.2296 15.7163 18.8821 15.8151 18.833C15.9101 18.8739 15.9846 19.2136 16.2535 18.9374C16.2348 18.803 15.9803 18.5275 15.8274 18.5342C15.7066 18.5395 15.3976 18.8064 15.3664 18.9764Z" fill="#8C593F"/>
<path fill-rule="evenodd" clip-rule="evenodd" d="M7.76933 14.0105C7.82349 14.0643 8.093 14.1649 8.20688 14.1376C8.37793 14.0906 8.69533 13.4186 8.03149 13.7006C7.88441 13.7637 7.74551 13.8093 7.76933 14.0105Z" fill="#8C593F"/>
<path fill-rule="evenodd" clip-rule="evenodd" d="M23.7163 12.9538C23.6204 13.1323 23.6402 13.2327 23.7392 13.3747C23.8305 13.5059 24.0193 13.4186 24.175 13.3555C24.5668 13.2142 24.0412 12.8772 23.7163 12.9538Z" fill="#8C593F"/>
<path fill-rule="evenodd" clip-rule="evenodd" d="M24.7465 10.8097C24.6035 10.7654 24.5325 10.729 24.4152 10.8411C24.4969 11.0062 24.7402 10.962 24.9224 11.0437C25.1283 11.1303 25.2298 11.2044 25.4878 11.1931C25.6733 11.1849 25.6846 11.1114 25.6932 11.0939C25.5608 10.9817 25.5183 11.0342 25.3669 11.0014C25.2551 10.978 25.2099 10.907 25.0901 10.8784C24.9705 10.8449 24.866 10.844 24.7465 10.8097Z" fill="#8C593F"/>
<path fill-rule="evenodd" clip-rule="evenodd" d="M6.72309 12.0193C7.02156 12.0061 7.06473 11.9368 7.31936 11.8187C7.54945 11.7073 7.76504 11.7485 7.83717 11.5654C7.72063 11.4581 7.62135 11.5298 7.48222 11.581C7.3681 11.6144 7.23837 11.6368 7.13202 11.681C7.00898 11.7315 6.98249 11.7945 6.8443 11.8229C6.69801 11.8576 6.59408 11.8339 6.54848 11.9711C6.61929 12.0015 6.62659 12.0235 6.72309 12.0193Z" fill="#8C593F"/>
<path fill-rule="evenodd" clip-rule="evenodd" d="M6.48297 13.3583C6.47764 13.4878 6.56149 13.7996 6.71879 13.6969L6.97034 13.2639C7.08506 13.0168 7.03118 12.7659 6.84213 13.0502C6.76493 13.1661 6.79039 13.137 6.65797 13.2158C6.56725 13.2701 6.53392 13.2999 6.48297 13.3583Z" fill="#8C593F"/>
<path fill-rule="evenodd" clip-rule="evenodd" d="M11.172 17.9961C11.2233 17.9208 11.2235 17.9148 11.26 17.8179C11.3048 17.7091 11.5815 17.4436 11.4694 17.2292C11.3165 17.2248 11.2944 17.3721 11.2108 17.4432C11.1107 17.5266 11.0377 17.5409 10.9456 17.6291C10.9449 17.6459 10.9136 18.0074 11.172 17.9961Z" fill="#8C593F"/>
<path fill-rule="evenodd" clip-rule="evenodd" d="M15.0666 20.0074C15.1793 20.008 15.1882 19.9909 15.2553 19.9205C15.3477 19.8263 15.6099 19.7135 15.6818 19.5361C15.7903 19.2501 15.4419 19.496 15.4419 19.496C15.3188 19.5572 14.8716 19.4644 15.0666 20.0074Z" fill="#8C593F"/>
<path fill-rule="evenodd" clip-rule="evenodd" d="M16.2959 19.886C16.3501 19.9398 16.3737 19.9556 16.4708 19.9457C16.5235 19.8365 16.5614 19.7052 16.5185 19.5667C16.4194 19.4359 16.2626 19.5273 16.1204 19.4606C16.0654 19.4291 16.0194 19.3749 15.9545 19.3833C15.8815 19.3977 15.8712 19.4488 15.8922 19.5269C15.9284 19.6266 16.0684 19.7441 16.1476 19.7801C16.2655 19.8367 16.2189 19.7992 16.2959 19.886Z" fill="#8C593F"/>
<path fill-rule="evenodd" clip-rule="evenodd" d="M20.7952 17.2013C20.7261 17.1198 20.6068 17.0804 20.5294 17.0104C20.4519 16.9349 20.4567 16.8166 20.2948 16.8409C20.2109 17.1202 20.4218 17.274 20.4793 17.4462C20.5858 17.79 20.8191 17.4085 20.7952 17.2013Z" fill="#8C593F"/>
<path fill-rule="evenodd" clip-rule="evenodd" d="M16.8569 20.1547C16.9507 20.2236 17.2469 20.2668 17.2895 20.0121C17.3019 19.9102 17.2983 19.7979 17.3342 19.7062C17.3871 19.5914 17.4265 19.612 17.3915 19.4843C17.1606 19.4155 17.0474 19.8257 16.9461 19.9371C16.8872 20.007 16.8541 20.0312 16.8569 20.1547Z" fill="#8C593F"/>
<path fill-rule="evenodd" clip-rule="evenodd" d="M14.665 20.1779C14.6676 20.1159 14.6286 20.0838 14.5901 20.0404C14.4829 19.9043 14.4172 19.5415 14.1804 19.6253C14.1349 19.7509 14.1992 19.7597 14.2272 19.8597C14.2833 20.0655 14.1453 20.2797 14.386 20.3086C14.4898 20.326 14.667 20.3297 14.665 20.1779Z" fill="#8C593F"/>
<path fill-rule="evenodd" clip-rule="evenodd" d="M8.55451 14.8707C8.66909 14.8262 8.95653 14.3014 8.93025 14.151C8.89082 13.939 8.70908 14.2453 8.67492 14.2859C8.5491 14.4039 8.48663 14.3616 8.38349 14.5181C8.3695 14.6762 8.45973 14.8242 8.55451 14.8707Z" fill="#8C593F"/>
<path fill-rule="evenodd" clip-rule="evenodd" d="M25.5338 12.8236C25.5765 12.7655 25.6315 12.5999 25.6349 12.5152C25.5351 12.4016 25.4782 12.4152 25.3689 12.3299C25.2838 12.2491 25.2903 12.0913 25.1346 12.1544C25.0585 12.4333 25.246 12.577 25.3111 12.7544C25.354 12.8821 25.4316 12.9573 25.5338 12.8236Z" fill="#8C593F"/>
<path fill-rule="evenodd" clip-rule="evenodd" d="M23.3509 13.6281C23.3126 13.5791 23.1706 13.3097 23.1136 13.526C23.0751 13.6797 23.3293 14.1523 23.4151 14.2163C23.5377 14.177 23.6331 14.0097 23.6316 13.8466C23.5334 13.6934 23.459 13.7417 23.3509 13.6281Z" fill="#8C593F"/>
<path fill-rule="evenodd" clip-rule="evenodd" d="M22.1491 15.6165C21.9439 15.513 22.0025 15.4598 21.687 15.496C21.6367 15.7403 21.7499 15.5383 21.9373 15.873C22.0351 16.0374 22.1152 16.0511 22.2982 15.9134C22.5563 15.7114 22.2757 15.6787 22.1491 15.6165Z" fill="#8C593F"/>
<path fill-rule="evenodd" clip-rule="evenodd" d="M12.5832 12.8643C12.3785 12.7497 11.6634 13.1074 11.8816 13.2833C12.0369 13.412 12.6376 13.104 12.5832 12.8643Z" fill="#8C593F"/>
<path fill-rule="evenodd" clip-rule="evenodd" d="M20.223 12.9168C20.4651 12.7147 19.8151 12.4621 19.5457 12.5469C19.5019 12.8304 20.0644 13.053 20.223 12.9168Z" fill="#8C593F"/>
<path fill-rule="evenodd" clip-rule="evenodd" d="M10.2057 16.0243C10.0249 15.9198 9.84871 16.0906 9.72474 16.1635C9.59269 16.2423 9.33299 16.2932 9.54323 16.4642C9.85486 16.7205 9.88627 16.3478 10.0606 16.2221C10.1518 16.1563 10.1995 16.1765 10.2057 16.0243Z" fill="#8C593F"/>
<path fill-rule="evenodd" clip-rule="evenodd" d="M7.3836 14.5559C7.55571 14.2839 7.33604 14.5413 7.53545 14.3861C7.71869 14.2428 7.26449 13.931 7.1051 14.0844C7.07939 14.1194 7.06563 14.0638 7.06503 14.2776C7.06757 14.4063 7.00273 14.6118 7.3836 14.5559Z" fill="#8C593F"/>
<path fill-rule="evenodd" clip-rule="evenodd" d="M24.9421 13.6879C24.986 13.6014 25.0972 13.0509 24.6422 13.3465C24.5844 13.383 24.4511 13.4902 24.4633 13.5849C24.475 13.6913 24.5179 13.6276 24.5723 13.6759C24.6189 13.7133 24.6019 13.7364 24.6319 13.7969C24.7602 13.8084 24.8813 13.7975 24.9421 13.6879Z" fill="#8C593F"/>
<path fill-rule="evenodd" clip-rule="evenodd" d="M7.71147 14.6206C7.76963 14.967 8.23799 14.9352 8.13344 14.5458C8.02168 14.1232 7.66047 14.291 7.71147 14.6206Z" fill="#8C593F"/>
<path fill-rule="evenodd" clip-rule="evenodd" d="M24.2798 13.9531C24.4147 13.6153 24.0774 13.3937 23.9078 13.7952C23.7126 14.2369 24.1711 14.245 24.2798 13.9531Z" fill="#8C593F"/>
<path fill-rule="evenodd" clip-rule="evenodd" d="M9.85163 10.7566C9.91884 10.8832 10.0623 10.916 10.2232 10.9261C10.4002 10.935 10.5871 10.8933 10.6645 10.7714C10.5494 10.6301 9.98949 10.5367 9.85163 10.7566Z" fill="#8C593F"/>
<path fill-rule="evenodd" clip-rule="evenodd" d="M25.6014 10.3833C25.5786 10.1593 25.1083 10.0393 24.8642 10.1007C24.8388 10.3267 25.385 10.5615 25.6014 10.3833Z" fill="#8C593F"/>
<path fill-rule="evenodd" clip-rule="evenodd" d="M6.69196 11.2108C6.80827 11.3237 6.99633 11.2536 7.16008 11.1846C7.28336 11.1285 7.45766 11.0028 7.45501 10.8677C7.24705 10.8318 6.72509 10.9956 6.69196 11.2108Z" fill="#8C593F"/>
<path fill-rule="evenodd" clip-rule="evenodd" d="M21.6528 10.2871C21.7574 10.4851 22.4197 10.4392 22.4625 10.1785C22.3072 10.0329 21.7718 10.1355 21.6528 10.2871Z" fill="#8C593F"/>
<path fill-rule="evenodd" clip-rule="evenodd" d="M24.1976 14.3725C24.2501 14.4659 24.2424 14.4551 24.3617 14.4949C24.6158 14.5794 24.9315 14.5372 24.9573 14.3111C24.7928 14.1888 24.3478 14.2422 24.1976 14.3725Z" fill="#8C593F"/>
<path fill-rule="evenodd" clip-rule="evenodd" d="M7.01437 15.1009C7.00856 15.2419 7.21491 15.317 7.36872 15.299C7.45759 15.2895 7.52323 15.2639 7.61326 15.2265C7.7033 15.1886 7.74392 15.1812 7.76371 15.0906C7.61548 14.9731 7.17236 14.9814 7.01437 15.1009Z" fill="#8C593F"/>
<path fill-rule="evenodd" clip-rule="evenodd" d="M9.72709 11.7974C9.63091 11.7848 9.65685 11.7442 9.54227 11.7887C9.55417 11.8895 9.56148 11.9115 9.6398 11.9587C9.82067 12.0632 9.92149 11.9631 10.1056 11.9889C10.2096 12.0011 10.2254 12.0175 10.3233 11.9793C10.338 11.8211 10.2818 11.818 9.96917 11.7755C9.84121 11.764 9.83912 11.8148 9.72709 11.7974Z" fill="#8C593F"/>
<path fill-rule="evenodd" clip-rule="evenodd" d="M22.6835 11.8292C22.6778 11.5762 22.1259 11.6794 22.0857 11.6756C21.9655 11.6586 22.0238 11.6109 21.8924 11.6729C21.9359 11.9861 22.296 11.8466 22.4401 11.8626C22.5528 11.8744 22.5836 11.9069 22.6835 11.8292Z" fill="#8C593F"/>
<path fill-rule="evenodd" clip-rule="evenodd" d="M8.18696 16.1636C8.22499 16.4096 8.7475 16.4317 8.60707 16.1339C8.57769 16.0678 8.47032 15.9374 8.38222 15.9189C8.23873 15.8857 8.17645 16.0293 8.18696 16.1636Z" fill="#8C593F"/>
<path fill-rule="evenodd" clip-rule="evenodd" d="M9.51641 12.4308C9.60388 12.4553 9.64498 12.4363 9.74232 12.4209C9.8805 12.3925 10.2543 12.4996 10.3077 12.1822C10.181 12.1316 10.2108 12.1865 10.0974 12.2026C10.065 12.2097 9.47955 12.1565 9.51641 12.4308Z" fill="#8C593F"/>
<path fill-rule="evenodd" clip-rule="evenodd" d="M17.8962 19.7478C17.7429 19.7546 17.6526 19.7981 17.6069 19.9293C17.4688 20.3461 18.0656 20.5225 17.8962 19.7478Z" fill="#8C593F"/>
<path fill-rule="evenodd" clip-rule="evenodd" d="M8.29184 15.5688C8.3273 15.2972 7.95096 15.0438 7.8395 15.2118C7.77015 15.3273 7.87683 15.4746 7.94768 15.5221C8.04116 15.591 8.16951 15.6021 8.29184 15.5688Z" fill="#8C593F"/>
<path fill-rule="evenodd" clip-rule="evenodd" d="M13.6597 19.9461C13.5094 20.2678 13.6481 20.6163 13.85 20.4104C14.0014 20.2517 13.9607 19.8707 13.6597 19.9461Z" fill="#8C593F"/>
<path fill-rule="evenodd" clip-rule="evenodd" d="M23.6367 14.8927C23.9004 14.9429 24.2481 14.7139 24.0896 14.4564C23.8806 14.4373 23.6219 14.6625 23.6367 14.8927Z" fill="#8C593F"/>
<path fill-rule="evenodd" clip-rule="evenodd" d="M11.0874 18.6692C11.2586 18.4196 10.6895 18.3605 10.6246 18.566C10.5878 18.6801 10.703 18.8102 10.7995 18.8171C10.9122 18.8173 11.0445 18.7329 11.0874 18.6692Z" fill="#8C593F"/>
<path fill-rule="evenodd" clip-rule="evenodd" d="M25.7515 10.4611C25.8116 10.5709 25.8305 10.5027 25.9324 10.5656C26.0736 10.6551 25.8585 10.6027 26.2847 10.8145C26.3398 10.846 26.4596 10.8742 26.4718 10.7668C26.4758 10.6709 26.3706 10.6867 26.1611 10.4877C26.0835 10.4241 25.8395 10.2829 25.7515 10.4611Z" fill="#8C593F"/>
<path fill-rule="evenodd" clip-rule="evenodd" d="M21.9013 11.4699C22.0126 11.5044 22.022 11.4757 22.1356 11.454C22.2332 11.4329 22.2964 11.4581 22.3854 11.4541C22.5305 11.4478 22.6797 11.3511 22.6934 11.2101C22.622 11.1849 22.5636 11.2325 22.4908 11.2413C22.3857 11.2571 22.3795 11.2067 22.2411 11.2411C21.9395 11.3218 21.8924 11.2956 21.9013 11.4699Z" fill="#8C593F"/>
<path fill-rule="evenodd" clip-rule="evenodd" d="M23.6534 15.2584C23.4142 15.2015 23.1491 15.5733 23.2822 15.6687C23.4307 15.7802 23.7995 15.6176 23.6534 15.2584Z" fill="#8C593F"/>
<path fill-rule="evenodd" clip-rule="evenodd" d="M20.5548 18.1503C20.5691 18.3918 20.9199 18.4777 21.044 18.2018C21.1419 17.9726 20.6691 17.9144 20.5548 18.1503Z" fill="#8C593F"/>
<path fill-rule="evenodd" clip-rule="evenodd" d="M5.79344 11.7176C5.90361 11.7801 6.08553 11.6596 6.19365 11.5819C6.27652 11.5276 6.27861 11.4769 6.34481 11.4289C6.45254 11.3511 6.47361 11.4288 6.53519 11.3024C6.44575 11.1265 6.18002 11.3237 6.11276 11.3884C5.86995 11.6185 5.78386 11.5604 5.79344 11.7176Z" fill="#8C593F"/>
<path fill-rule="evenodd" clip-rule="evenodd" d="M17.9805 19.0471C18.3437 19.0311 18.3526 18.6143 18.2268 18.5409C18.1006 18.479 18.0455 18.639 17.9857 18.7202C17.8826 18.8771 17.9379 18.9026 17.9805 19.0471Z" fill="#8C593F"/>
<path fill-rule="evenodd" clip-rule="evenodd" d="M12.1103 20.0374C12.1379 20.3457 12.5507 20.2936 12.4743 19.9991C12.355 19.5708 12.0936 19.8523 12.1103 20.0374Z" fill="#8C593F"/>
<path fill-rule="evenodd" clip-rule="evenodd" d="M16.8249 18.9622C16.6739 18.9126 16.2681 19.1838 16.4542 19.361C16.5783 19.474 16.9407 19.2778 16.8249 18.9622Z" fill="#8C593F"/>
<path fill-rule="evenodd" clip-rule="evenodd" d="M13.6009 19.2393C13.7022 19.1279 13.714 19.0317 13.6465 18.911C13.5933 18.8344 13.5433 18.6791 13.4193 18.7523C13.2792 18.8371 13.2863 19.2531 13.6009 19.2393Z" fill="#8C593F"/>
<path fill-rule="evenodd" clip-rule="evenodd" d="M14.7675 19.25C14.8286 19.5229 15.2308 19.5391 15.1704 19.2378C15.1358 19.0986 14.6708 18.8602 14.7675 19.25Z" fill="#8C593F"/>
<path fill-rule="evenodd" clip-rule="evenodd" d="M19.4169 19.7653C19.4782 19.6446 19.4028 19.5183 19.3321 19.4763C19.2221 19.4082 19.1599 19.5513 19.1081 19.6381C18.9599 19.9091 19.2491 20.1217 19.4169 19.7653Z" fill="#8C593F"/>
<path fill-rule="evenodd" clip-rule="evenodd" d="M19.9569 16.2648C19.9208 16.3622 19.944 16.3779 19.9315 16.4909C19.9271 16.598 19.8938 16.6278 19.8827 16.6956C19.8783 16.8027 20.003 16.9041 20.1168 16.8768C20.2468 16.8487 20.1585 16.6444 20.1395 16.5268C20.1147 16.348 20.0859 16.2592 19.9569 16.2648Z" fill="#8C593F"/>
<path fill-rule="evenodd" clip-rule="evenodd" d="M5.63455 12.0557C5.3841 12.0723 5.24588 12.5003 5.40428 12.5611C5.49154 12.5908 5.83458 12.4744 5.63455 12.0557Z" fill="#8C593F"/>
<path fill-rule="evenodd" clip-rule="evenodd" d="M26.5933 11.1335C26.3691 11.4924 26.6596 11.6706 26.7827 11.6205C26.9549 11.5451 26.835 11.1285 26.5933 11.1335Z" fill="#8C593F"/>
<path fill-rule="evenodd" clip-rule="evenodd" d="M11.8715 16.6433C11.8635 16.6381 11.8566 16.6156 11.8072 16.6349C11.799 16.6353 11.7912 16.6357 11.7909 16.6412C11.7333 16.6721 11.6869 16.8201 11.6682 16.8832C11.6302 17.0256 11.4866 17.3865 11.7999 17.2036C11.9893 17.0995 11.8801 17.0142 11.8792 16.8455C11.8753 16.75 11.9002 16.7262 11.8715 16.6433Z" fill="#8C593F"/>
<path fill-rule="evenodd" clip-rule="evenodd" d="M7.65811 15.7144C7.64129 15.9233 8.0971 16.196 8.18584 15.8092C8.0679 15.7358 7.85766 15.5648 7.65811 15.7144Z" fill="#8C593F"/>
<path fill-rule="evenodd" clip-rule="evenodd" d="M22.9588 12.762C23.0616 12.4141 22.8436 12.2327 22.6937 12.5544C22.6227 12.7094 22.6515 12.7983 22.7532 12.8668C22.8468 12.9417 22.9217 12.8821 22.9588 12.762Z" fill="#8C593F"/>
<path fill-rule="evenodd" clip-rule="evenodd" d="M5.32141 13.0145C5.40877 13.2412 5.86359 13.1482 5.86674 12.8724C5.68727 12.734 5.42456 12.858 5.32141 13.0145Z" fill="#8C593F"/>
<path fill-rule="evenodd" clip-rule="evenodd" d="M9.14117 13.3423C9.17687 13.6446 9.52409 13.4267 9.44614 13.1713C9.35418 12.8659 9.09333 12.9447 9.14117 13.3423Z" fill="#8C593F"/>
<path fill-rule="evenodd" clip-rule="evenodd" d="M23.7233 15.1256C23.7739 15.4667 24.2426 15.2263 24.2608 14.9839C24.0813 14.8454 23.8395 15.0419 23.7233 15.1256Z" fill="#8C593F"/>
<path fill-rule="evenodd" clip-rule="evenodd" d="M26.3014 11.9736C26.2751 12.2224 26.7058 12.3271 26.8292 12.0684C26.7469 11.9089 26.46 11.8314 26.3014 11.9736Z" fill="#8C593F"/>
<path fill-rule="evenodd" clip-rule="evenodd" d="M19.6288 19.3347C19.6328 19.6272 19.9815 19.5724 20.0223 19.3624C20.0729 19.1125 19.6243 19.0533 19.6288 19.3347Z" fill="#8C593F"/>
<path fill-rule="evenodd" clip-rule="evenodd" d="M11.9377 19.723C12.0382 19.4314 11.6028 19.451 11.5536 19.6669C11.513 19.8653 11.8283 20.0317 11.9377 19.723Z" fill="#8C593F"/>
<path fill-rule="evenodd" clip-rule="evenodd" d="M18.9677 19.5609C18.931 19.4724 18.9 19.4458 18.7873 19.4452C18.3371 19.4255 18.5628 19.8096 18.796 19.8217C18.8547 19.7569 18.9548 19.6739 18.9677 19.5609Z" fill="#8C593F"/>
<path fill-rule="evenodd" clip-rule="evenodd" d="M12.7443 20.0874C12.8898 20.0699 13.0412 19.9224 13.0314 19.7597C12.891 19.6534 12.6564 19.6749 12.5841 19.8696C12.6208 19.9581 12.6901 20.0336 12.7443 20.0874Z" fill="#8C593F"/>
<path fill-rule="evenodd" clip-rule="evenodd" d="M9.95683 16.7833C9.83151 16.6987 9.30319 16.8177 9.45672 16.9968C9.57987 17.1429 9.98701 17.0293 9.95683 16.7833Z" fill="#8C593F"/>
<path fill-rule="evenodd" clip-rule="evenodd" d="M22.3752 16.383C22.3639 16.2654 22.26 16.2417 22.1404 16.2191C21.9964 16.1971 21.9404 16.1884 21.8477 16.2826C21.8937 16.5338 22.2375 16.5972 22.3752 16.383Z" fill="#8C593F"/>
<path fill-rule="evenodd" clip-rule="evenodd" d="M20.4388 18.6291C20.6146 18.2668 20.2082 18.3637 20.1202 18.5418C20.0241 18.7259 20.2981 18.9164 20.4388 18.6291Z" fill="#8C593F"/>
<path fill-rule="evenodd" clip-rule="evenodd" d="M11.1785 18.986C11.2548 19.2809 11.5414 19.167 11.5332 18.976C11.5252 18.7793 11.0958 18.6462 11.1785 18.986Z" fill="#8C593F"/>
<path fill-rule="evenodd" clip-rule="evenodd" d="M6.72023 14.8156C6.73468 14.8545 6.86822 14.9387 6.94878 14.9408C7.04565 14.9365 7.16162 14.8584 7.13363 14.7584C7.0913 14.6079 6.63372 14.5774 6.72023 14.8156Z" fill="#8C593F"/>
<path fill-rule="evenodd" clip-rule="evenodd" d="M25.2878 13.8921C25.1159 13.7588 24.8201 13.9071 24.8623 14.0516C24.9194 14.2233 25.2849 14.151 25.2878 13.8921Z" fill="#8C593F"/>
<path fill-rule="evenodd" clip-rule="evenodd" d="M22.1821 10.6977C22.0997 10.7408 22.0551 10.844 22.1079 10.9314C22.146 10.986 22.2819 11.0139 22.3793 10.9869C22.575 10.9392 22.4041 10.5922 22.1821 10.6977Z" fill="#8C593F"/>
<path fill-rule="evenodd" clip-rule="evenodd" d="M6.50981 12.3048C6.55909 12.4769 6.72144 12.4418 6.84495 12.3802C7.0755 12.2575 7.15973 12.3607 7.17492 12.1914C7.0179 12.097 6.68839 12.2746 6.68016 12.2749C6.5987 12.2949 6.59176 12.2729 6.50981 12.3048Z" fill="#8C593F"/>
<path fill-rule="evenodd" clip-rule="evenodd" d="M9.95257 11.2407C9.76404 11.322 9.69571 11.6122 10.0457 11.5178C10.29 11.4508 10.1985 11.1342 9.95257 11.2407Z" fill="#8C593F"/>
<path fill-rule="evenodd" clip-rule="evenodd" d="M25.5091 11.4397C25.485 11.4352 25.2089 11.2954 25.0435 11.4039C25.0552 11.5103 25.0478 11.4995 25.1677 11.5165C25.4241 11.5447 25.3644 11.6259 25.551 11.5898C25.6567 11.5628 25.6652 11.5564 25.6932 11.4655C25.6062 11.4298 25.5965 11.4641 25.5091 11.4397Z" fill="#8C593F"/>
<path fill-rule="evenodd" clip-rule="evenodd" d="M6.66943 12.7306C6.72787 12.88 6.94127 12.7749 7.01592 12.7209C7.26487 12.5413 7.2997 12.6745 7.29936 12.4835C7.20341 12.4654 7.03189 12.5236 6.94963 12.5719C6.85913 12.6209 6.90737 12.6188 6.81735 12.6563C6.71076 12.706 6.73725 12.643 6.66943 12.7306Z" fill="#8C593F"/>
<path fill-rule="evenodd" clip-rule="evenodd" d="M25.3573 11.8412C25.3256 11.8314 25.1073 11.6552 24.8874 11.7099C24.8821 11.8394 24.883 11.817 25.0028 11.8456C25.1619 11.8893 25.4023 12.1152 25.4996 11.9027C25.4385 11.8261 25.4607 11.8757 25.3573 11.8412Z" fill="#8C593F"/>
<path fill-rule="evenodd" clip-rule="evenodd" d="M18.3061 19.7748C18.0843 19.8859 18.1455 20.1588 18.3126 20.2076C18.3794 20.1541 18.4052 20.1079 18.4024 19.9843C18.3985 19.872 18.3684 19.8227 18.3061 19.7748Z" fill="#8C593F"/>
<path fill-rule="evenodd" clip-rule="evenodd" d="M13.4915 19.5535C13.5351 19.6641 13.6906 19.8036 13.8553 19.7118C13.9187 19.5403 13.6458 19.333 13.4915 19.5535Z" fill="#8C593F"/>
<path fill-rule="evenodd" clip-rule="evenodd" d="M17.7112 19.5422C17.8773 19.6138 18.0365 19.466 18.0894 19.3512C18.0511 19.3023 18.0901 19.3344 18.0352 19.2974C17.8863 19.197 17.6688 19.3921 17.7112 19.5422Z" fill="#8C593F"/>
<path fill-rule="evenodd" clip-rule="evenodd" d="M11.2772 10.7437C11.2843 10.7713 11.2497 10.8239 11.4583 10.8426C11.5788 10.8541 11.6675 10.8502 11.7503 10.7959C11.7011 10.6238 11.365 10.5708 11.2772 10.7437Z" fill="#8C593F"/>
<path fill-rule="evenodd" clip-rule="evenodd" d="M13.1978 20.4329C13.3535 20.3699 13.4705 20.0664 13.24 19.998C13.1148 20.0992 13.0734 20.326 13.1978 20.4329Z" fill="#8C593F"/>
<path fill-rule="evenodd" clip-rule="evenodd" d="M20.5684 10.409C20.6625 10.4723 20.9686 10.4644 21.0393 10.3153C21.0175 10.2544 21.0334 10.2593 20.9539 10.2401C20.914 10.2307 20.8256 10.229 20.7932 10.236C20.6715 10.2525 20.5966 10.3121 20.5684 10.409Z" fill="#8C593F"/>
<path fill-rule="evenodd" clip-rule="evenodd" d="M8.83788 16.5855C8.88264 16.668 8.94038 16.8342 9.14733 16.6955C9.17745 16.5534 9.15452 16.5209 9.09262 16.4558C8.98002 16.4612 8.89762 16.5039 8.83788 16.5855Z" fill="#8C593F"/>
<path fill-rule="evenodd" clip-rule="evenodd" d="M22.6848 16.0989C22.8104 16.1779 22.958 16.1092 23.0045 15.9612C22.9512 15.8845 22.8805 15.843 22.7591 15.8539C22.692 15.9243 22.6665 15.9533 22.6848 16.0989Z" fill="#8C593F"/>
<path fill-rule="evenodd" clip-rule="evenodd" d="M20.9998 17.5128C20.8998 17.7928 21.2613 18.0078 21.2299 17.5928C21.1601 17.5281 21.1298 17.4847 20.9998 17.5128Z" fill="#8C593F"/>
<path fill-rule="evenodd" clip-rule="evenodd" d="M10.5711 18.2924C10.6856 18.2478 10.7638 18.1096 10.7216 17.9651C10.4891 17.9358 10.3739 18.1942 10.5711 18.2924Z" fill="#8C593F"/>
<path fill-rule="evenodd" clip-rule="evenodd" d="M10.5961 17.6834C10.7275 17.6214 10.8681 17.3341 10.6826 17.3422C10.5293 17.349 10.4242 17.5618 10.5961 17.6834Z" fill="#8C593F"/>
<path fill-rule="evenodd" clip-rule="evenodd" d="M21.1487 17.219C21.3237 17.0761 21.2513 16.8771 21.0901 16.8842C20.9128 16.892 21.0142 17.1687 21.1487 17.219Z" fill="#8C593F"/>
<path fill-rule="evenodd" clip-rule="evenodd" d="M19.9278 13.2158C19.948 13.3162 19.9823 13.461 20.1057 13.3938C20.3118 13.2834 20.1803 12.9518 19.9278 13.2158Z" fill="#8C593F"/>
<path fill-rule="evenodd" clip-rule="evenodd" d="M11.954 13.4709C11.8455 13.5658 11.8249 13.668 11.9428 13.7414C12.0605 13.8207 12.1228 13.6772 12.1516 13.5579C12.1055 13.5089 12.0342 13.4729 11.954 13.4709Z" fill="#8C593F"/>
<path fill-rule="evenodd" clip-rule="evenodd" d="M8.9647 13.8953C9.1075 13.9453 9.34558 13.8391 9.27293 13.6453C9.12905 13.6125 8.95404 13.7554 8.9647 13.8953Z" fill="#8C593F"/>
<path fill-rule="evenodd" clip-rule="evenodd" d="M23.0994 13.2735C23.1206 13.149 23.0884 13.1504 23.0024 13.0919C22.9395 13.0496 22.9085 13.0231 22.8189 13.0494C22.714 13.2398 22.952 13.3362 23.0994 13.2735Z" fill="#8C593F"/>
<path fill-rule="evenodd" clip-rule="evenodd" d="M20.3747 19.1891C20.5056 19.1382 20.5965 19.078 20.6033 18.9146C20.4107 18.8947 20.3767 18.9413 20.2834 19.0583C20.3049 19.1243 20.3047 19.1299 20.3747 19.1891Z" fill="#8C593F"/>
<path fill-rule="evenodd" clip-rule="evenodd" d="M11.3132 19.4529C11.2368 19.3493 11.1988 19.2948 11.0119 19.3365C10.9893 19.495 11.0995 19.5576 11.2108 19.5922L11.2783 19.5218C11.3041 19.4756 11.2951 19.5043 11.3132 19.4529Z" fill="#8C593F"/>
<path fill-rule="evenodd" clip-rule="evenodd" d="M6.29243 13.8671C6.31141 13.9955 6.55776 14.0692 6.52596 13.8624C6.49336 13.684 6.26132 13.6435 6.29243 13.8671Z" fill="#8C593F"/>
<path fill-rule="evenodd" clip-rule="evenodd" d="M25.5687 13.1424C25.6956 13.1874 25.8569 12.9889 25.7644 12.8861C25.6799 12.7885 25.4863 12.994 25.5687 13.1424Z" fill="#8C593F"/>
<path fill-rule="evenodd" clip-rule="evenodd" d="M25.9708 10.998C26.0512 11.0057 26.1469 11.0186 26.1669 10.9332C26.2079 10.7176 25.7512 10.6643 25.9708 10.998Z" fill="#8C593F"/>
<path fill-rule="evenodd" clip-rule="evenodd" d="M6.27015 11.8649C6.29586 11.8299 6.35512 11.7598 6.34205 11.6874C6.3003 11.5317 6.06812 11.6939 6.0791 11.8171C6.09134 11.9007 6.1889 11.8796 6.27015 11.8649Z" fill="#8C593F"/>
<path fill-rule="evenodd" clip-rule="evenodd" d="M8.58659 15.8313C8.56702 15.9167 8.75705 15.9981 8.87162 15.9539L8.89142 15.8629C8.85358 15.8028 8.90082 15.8342 8.8295 15.7983C8.79804 15.7825 8.61485 15.7343 8.58659 15.8313Z" fill="#8C593F"/>
<path fill-rule="evenodd" clip-rule="evenodd" d="M23.0391 15.3348C23.1424 15.3641 23.3243 15.2548 23.3191 15.1817C23.2987 15.0868 23.1037 15.1349 23.0034 15.2239L23.0391 15.3348Z" fill="#8C593F"/>
<path fill-rule="evenodd" clip-rule="evenodd" d="M10.2203 11.0044C10.2203 11.0044 10.1643 10.9957 10.2086 11.0895C10.2382 11.15 10.3644 11.2118 10.498 11.1051C10.4634 10.9654 10.3105 10.961 10.2203 11.0044Z" fill="#8C593F"/>
<path fill-rule="evenodd" clip-rule="evenodd" d="M11.7423 15.287C11.622 15.2699 11.3621 15.326 11.4695 15.4565C11.5151 15.5163 11.5899 15.468 11.6557 15.4316C11.7305 15.3832 11.7302 15.3888 11.7423 15.287Z" fill="#8C593F"/>
<path fill-rule="evenodd" clip-rule="evenodd" d="M21.8002 10.6075C21.9563 10.7243 22.0828 10.5895 22.0927 10.5384C22.1054 10.431 22.1012 10.5324 22.0868 10.4824C22.0638 10.4607 21.8478 10.4311 21.8002 10.6075Z" fill="#8C593F"/>
<path fill-rule="evenodd" clip-rule="evenodd" d="M20.4557 15.0837C20.5116 14.8953 20.3757 14.879 20.1968 14.9152C20.2007 15.0219 20.2087 15.016 20.2799 15.0467C20.3354 15.0778 20.3745 15.0984 20.4557 15.0837Z" fill="#8C593F"/>
<path fill-rule="evenodd" clip-rule="evenodd" d="M18.6476 20.0696C18.6928 20.1406 18.7249 20.1508 18.8221 20.1293C18.9273 20.1135 18.9451 20.0788 18.9574 19.9714C18.829 19.9603 18.7159 19.9709 18.6476 20.0696Z" fill="#8C593F"/>
<path fill-rule="evenodd" clip-rule="evenodd" d="M12.8721 20.3239C12.8114 20.2309 12.6989 20.2246 12.5689 20.2527C12.5725 20.365 12.5953 20.3923 12.6917 20.3992C12.7961 20.4118 12.8212 20.3824 12.8721 20.3239Z" fill="#8C593F"/>
<path fill-rule="evenodd" clip-rule="evenodd" d="M12.3764 19.4339C12.0238 19.3932 12.3312 19.751 12.5097 19.5238C12.488 19.4629 12.5347 19.5059 12.4643 19.4584C12.4404 19.4478 12.4005 19.4384 12.3764 19.4339Z" fill="#8C593F"/>
<path fill-rule="evenodd" clip-rule="evenodd" d="M25.7867 13.3243C25.7033 13.5924 25.9 13.5108 25.9933 13.3942C25.9874 13.3382 25.9722 13.3162 25.9497 13.2837C25.8535 13.2708 25.8528 13.2875 25.7867 13.3243Z" fill="#8C593F"/>
<path fill-rule="evenodd" clip-rule="evenodd" d="M21.7302 16.209C21.5087 16.1119 21.4696 16.6708 21.6908 16.3851C21.7926 16.2625 21.73 16.2146 21.7302 16.209Z" fill="#8C593F"/>
<path fill-rule="evenodd" clip-rule="evenodd" d="M20.5789 16.5921C20.5791 16.5865 20.5704 16.598 20.5623 16.604C20.5621 16.6096 20.5448 16.6387 20.5745 16.6992C20.6121 16.7649 20.6438 16.7751 20.7329 16.7596C20.8141 16.7449 20.79 16.7403 20.8148 16.7277C20.8022 16.6437 20.7869 16.6276 20.7157 16.5968C20.6131 16.5507 20.6037 16.5794 20.6037 16.5794C20.5952 16.5858 20.5869 16.5973 20.5789 16.5921Z" fill="#8C593F"/>
<path fill-rule="evenodd" clip-rule="evenodd" d="M6.26353 14.1836C6.21645 14.1574 6.1846 14.142 6.10373 14.1568C6.06993 14.1977 6.06147 14.2037 6.05869 14.2712C6.11898 14.3754 6.3084 14.4628 6.26353 14.1836Z" fill="#8C593F"/>
<path fill-rule="evenodd" clip-rule="evenodd" d="M10.0769 16.8003C10.089 16.8955 10.2756 17.0615 10.2752 16.8705C10.2813 16.7239 10.0605 16.6096 10.0769 16.8003Z" fill="#8C593F"/>
<path fill-rule="evenodd" clip-rule="evenodd" d="M19.077 19.2343C19.169 19.3483 19.3637 19.3062 19.3709 19.1312C19.2669 19.119 19.1298 19.1195 19.077 19.2343Z" fill="#8C593F"/>
<path fill-rule="evenodd" clip-rule="evenodd" d="M10.9808 17.1608C11.0828 17.2237 11.2133 17.19 11.244 17.0256C11.1504 16.9507 11.0103 17.0243 10.9808 17.1608Z" fill="#8C593F"/>
<path fill-rule="evenodd" clip-rule="evenodd" d="M26.0635 12.2708C26.0284 12.3453 25.9961 12.5382 26.1606 12.4524C26.2509 12.4089 26.2899 12.2496 26.0635 12.2708Z" fill="#8C593F"/>
<path fill-rule="evenodd" clip-rule="evenodd" d="M20.4531 10.8582C20.5619 10.9547 20.7596 10.8503 20.8111 10.7695C20.7322 10.7275 20.513 10.7654 20.4531 10.8582Z" fill="#8C593F"/>
<path fill-rule="evenodd" clip-rule="evenodd" d="M6.08013 13.1497C5.86291 13.1481 5.86449 13.3 5.9595 13.3409C6.10959 13.4133 6.10141 13.2222 6.08013 13.1497Z" fill="#8C593F"/>
<path fill-rule="evenodd" clip-rule="evenodd" d="M11.4689 11.1798C11.5221 11.2564 11.7037 11.3437 11.8208 11.2373C11.7981 11.1988 11.8633 11.1847 11.6544 11.1716C11.5741 11.164 11.5431 11.137 11.4689 11.1798Z" fill="#8C593F"/>
<path fill-rule="evenodd" clip-rule="evenodd" d="M25.5947 13.6924C25.6455 13.6283 25.671 13.5989 25.6675 13.4921C25.5555 13.4747 25.5222 13.5041 25.4551 13.5633C25.484 13.641 25.5066 13.6739 25.5947 13.6924Z" fill="#8C593F"/>
<path fill-rule="evenodd" clip-rule="evenodd" d="M6.56841 14.3894C6.52203 14.3464 6.4748 14.3146 6.37699 14.3416C6.3485 14.4442 6.37941 14.4823 6.43357 14.5362C6.51529 14.5098 6.54077 14.4804 6.56841 14.3894Z" fill="#8C593F"/>
<path fill-rule="evenodd" clip-rule="evenodd" d="M26.1412 11.5473C26.1621 11.6309 26.1375 11.6376 26.2169 11.6676C26.3831 11.7392 26.3887 11.6038 26.3182 11.5562C26.271 11.5244 26.1982 11.5332 26.1412 11.5473Z" fill="#8C593F"/>
<path fill-rule="evenodd" clip-rule="evenodd" d="M5.83098 12.5706C5.91036 12.601 6.01672 12.5569 6.03512 12.4998C6.07947 12.4022 6.02968 12.4327 6.02968 12.4327C5.92658 12.3977 5.84416 12.4408 5.83098 12.5706Z" fill="#8C593F"/>
<path fill-rule="evenodd" clip-rule="evenodd" d="M6.94288 14.1087C6.93214 13.9796 6.82774 13.9674 6.7119 14.0515C6.73481 14.0844 6.74951 14.1172 6.80528 14.1319C6.89231 14.1672 6.89302 14.15 6.94288 14.1087Z" fill="#8C593F"/>
<path fill-rule="evenodd" clip-rule="evenodd" d="M25.3394 13.2533C25.2715 13.1438 25.1323 13.195 25.1133 13.2688C25.0664 13.4284 25.2893 13.3006 25.3394 13.2533Z" fill="#8C593F"/>
<path fill-rule="evenodd" clip-rule="evenodd" d="M26.0557 12.8621C26.0926 12.945 26.0529 12.9296 26.1309 12.994C26.1619 13.0205 26.1857 13.031 26.2417 13.0397C26.2563 12.8756 26.2086 12.8665 26.0557 12.8621Z" fill="#8C593F"/>
<path fill-rule="evenodd" clip-rule="evenodd" d="M5.831 13.9381C5.94487 13.9108 5.99521 13.8579 6.03241 13.7434C5.88644 13.7614 5.8295 13.7751 5.831 13.9381Z" fill="#8C593F"/>
<path fill-rule="evenodd" clip-rule="evenodd" d="M9.27126 16.4362C9.27427 16.3631 9.22523 16.185 9.14118 16.2677C9.04882 16.3619 9.1907 16.4342 9.27126 16.4362Z" fill="#8C593F"/>
<path fill-rule="evenodd" clip-rule="evenodd" d="M22.5824 15.8504C22.6306 15.8483 22.6797 15.8349 22.7137 15.7884C22.7562 15.7358 22.7551 15.7642 22.7349 15.6638C22.6142 15.6579 22.5946 15.743 22.5824 15.8504Z" fill="#8C593F"/>
<path fill-rule="evenodd" clip-rule="evenodd" d="M19.6239 18.8619C19.6267 18.7943 19.6374 18.7316 19.5316 18.7534C19.4097 18.7867 19.4583 18.976 19.6239 18.8619Z" fill="#8C593F"/>
<path fill-rule="evenodd" clip-rule="evenodd" d="M11.9915 19.1981C12.0856 19.2614 12.191 19.24 12.1327 19.0962L12.012 19.0903C11.9943 19.1302 11.9775 19.1481 11.9915 19.1981Z" fill="#8C593F"/>
<path fill-rule="evenodd" clip-rule="evenodd" d="M20.567 17.8526C20.5599 17.6336 20.4251 17.7799 20.4169 17.7802C20.4072 17.8146 20.4162 17.797 20.4148 17.831C20.4134 17.865 20.451 17.9311 20.567 17.8526Z" fill="#8C593F"/>
<path fill-rule="evenodd" clip-rule="evenodd" d="M13.3357 19.6111L13.3247 19.488C13.212 19.4873 13.1959 19.4881 13.1757 19.5902C13.2541 19.6426 13.2303 19.6325 13.3357 19.6111Z" fill="#8C593F"/>
<path fill-rule="evenodd" clip-rule="evenodd" d="M18.4032 19.3604C18.3913 19.2596 18.3752 19.2603 18.2538 19.2712L18.2487 19.3951C18.3531 19.4076 18.3205 19.4202 18.4032 19.3604Z" fill="#8C593F"/>
<path fill-rule="evenodd" clip-rule="evenodd" d="M11.1284 18.268C11.2383 18.3361 11.3047 18.2941 11.2779 18.1545C11.1732 18.1591 11.141 18.1605 11.1284 18.268Z" fill="#8C593F"/>
<path fill-rule="evenodd" clip-rule="evenodd" d="M26.3792 12.6169C26.3129 12.6593 26.305 12.6597 26.3006 12.7668L26.3965 12.7849C26.424 12.6995 26.4086 12.6834 26.3792 12.6169Z" fill="#8C593F"/>
<path fill-rule="evenodd" clip-rule="evenodd" d="M5.79343 13.6696C5.79761 13.5682 5.78961 13.5629 5.73476 13.5259C5.70005 13.5892 5.6748 13.613 5.70326 13.7015L5.79343 13.6696Z" fill="#8C593F"/>
</g>
</g>
<defs>
<filter id="filter0_d_84_1191" x="0.276983" y="0.773193" width="88.3415" height="32.0276" filterUnits="userSpaceOnUse" color-interpolation-filters="sRGB">
<feFlood flood-opacity="0" result="BackgroundImageFix"/>
<feColorMatrix in="SourceAlpha" type="matrix" values="0 0 0 0 0 0 0 0 0 0 0 0 0 0 0 0 0 0 127 0" result="hardAlpha"/>
<feOffset dy="2.82556"/>
<feGaussianBlur stdDeviation="1.41278"/>
<feComposite in2="hardAlpha" operator="out"/>
<feColorMatrix type="matrix" values="0 0 0 0 0 0 0 0 0 0 0 0 0 0 0 0 0 0 0.25 0"/>
<feBlend mode="normal" in2="BackgroundImageFix" result="effect1_dropShadow_84_1191"/>
<feBlend mode="normal" in="SourceGraphic" in2="effect1_dropShadow_84_1191" result="shape"/>
</filter>
<filter id="filter1_i_84_1191" x="5.32129" y="9.30249" width="21.543" height="13.9461" filterUnits="userSpaceOnUse" color-interpolation-filters="sRGB">
<feFlood flood-opacity="0" result="BackgroundImageFix"/>
<feBlend mode="normal" in="SourceGraphic" in2="BackgroundImageFix" result="shape"/>
<feColorMatrix in="SourceAlpha" type="matrix" values="0 0 0 0 0 0 0 0 0 0 0 0 0 0 0 0 0 0 127 0" result="hardAlpha"/>
<feOffset dy="2.77647"/>
<feGaussianBlur stdDeviation="1.38823"/>
<feComposite in2="hardAlpha" operator="arithmetic" k2="-1" k3="1"/>
<feColorMatrix type="matrix" values="0 0 0 0 0 0 0 0 0 0 0 0 0 0 0 0 0 0 0.25 0"/>
<feBlend mode="normal" in2="shape" result="effect1_innerShadow_84_1191"/>
</filter>
<linearGradient id="paint0_linear_84_1191" x1="55.5984" y1="5.27637" x2="55.5984" y2="21.9352" gradientUnits="userSpaceOnUse">
<stop stop-color="#FF975C"/>
<stop offset="1" stop-color="#9B7159"/>
</linearGradient>
</defs>
</svg>
