<svg xmlns="http://www.w3.org/2000/svg" xmlns:xlink="http://www.w3.org/1999/xlink" width="17" height="21" viewBox="0 0 17 21">
    <defs>
        <path id="ec1328p6da" d="M0 0L16.049 0 16.049 20.52 0 20.52z"/>
    </defs>
    <g fill="none" fill-rule="evenodd">
        <g>
            <g>
                <g>
                    <g transform="translate(-1125 -78) translate(938 67) translate(187 3) translate(0 8)">
                        <mask id="pya3a0t31b" fill="#fff">
                            <use xlink:href="#ec1328p6da"/>
                        </mask>
                        <path fill="#FFF" d="M11.534 13.543H4.493c-.41 0-.735-.324-.735-.734s.324-.735.735-.735h7.041c.41 0 .735.324.735.735 0 .41-.324.734-.735.734m0 3.564H4.493c-.41 0-.735-.324-.735-.734s.324-.735.735-.735h7.041c.41 0 .735.324.735.735 0 .41-.324.734-.735.734M5.27 4.925c.605-.735 1.685-.778 2.355-.108l.389.389.324-.324c.583-.584 1.533-.692 2.181-.152.735.605.778 1.685.108 2.355l-2.31 2.268c-.174.173-.455.173-.627 0L5.422 7.106c-.584-.583-.67-1.533-.152-2.181M14.342 0H1.685C.756 0 0 .756 0 1.685v17.15c0 .929.756 1.685 1.685 1.685h12.68c.928 0 1.684-.756 1.684-1.685V1.685C16.027.756 15.27 0 14.342 0" mask="url(#pya3a0t31b)"/>
                    </g>
                </g>
            </g>
        </g>
    </g>
</svg>
